<?xml version="1.0" encoding="utf-8"?>
<!-- Generator: Adobe Illustrator 23.0.3, SVG Export Plug-In . SVG Version: 6.00 Build 0)  -->
<svg version="1.1" id="图层_1" xmlns="http://www.w3.org/2000/svg" xmlns:xlink="http://www.w3.org/1999/xlink" x="0px" y="0px"
	 viewBox="0 0 32 32" style="enable-background:new 0 0 32 32;" xml:space="preserve">
<style type="text/css">
	.st0{fill:#323333;}
	.st1{fill:#666666;}
	.st2{fill:#2CA6E0;}
	.st3{fill:#FCD13E;}
</style>
<g>
	<polygon class="st0" points="14.11,16.52 14.11,16.27 15.03,16.27 15.03,14.28 15.34,14.28 15.34,15 16.31,15 16.31,15.28 
		15.34,15.28 15.34,16.27 16.5,16.27 16.5,16.52 	"/>
	<path class="st0" d="M17.06,15.46c-0.11-0.11-0.24-0.21-0.38-0.32l0.17-0.18c0.14,0.1,0.27,0.2,0.39,0.3L17.06,15.46z M16.98,16.65
		l-0.26-0.07c0.09-0.32,0.17-0.62,0.23-0.89c0.08,0.03,0.17,0.06,0.26,0.08C17.1,16.17,17.02,16.46,16.98,16.65 M17.13,14.79
		c-0.03-0.02-0.07-0.05-0.12-0.1c-0.05-0.05-0.13-0.12-0.26-0.22l0.17-0.19c0.07,0.06,0.2,0.16,0.39,0.31L17.13,14.79z M17.4,15.12
		c-0.01-0.01-0.01-0.02-0.02-0.03c-0.04-0.05-0.09-0.1-0.15-0.16c0.21-0.19,0.37-0.43,0.48-0.69l0.28,0.03
		c-0.04,0.07-0.07,0.13-0.1,0.19h1.18v0.22h-1.31c-0.01,0.02-0.04,0.05-0.07,0.09c-0.03,0.05-0.05,0.08-0.07,0.1h1.3v0.18
		c-0.01,0.17-0.01,0.31-0.01,0.42h0.21v0.22H18.9l-0.01,0.38h0.18v0.22h-0.19c-0.01,0.23-0.14,0.34-0.4,0.34h-0.38
		c-0.02-0.07-0.04-0.14-0.06-0.21h0.17c0.08,0.01,0.14,0.01,0.19,0.01c0.14,0.01,0.22-0.04,0.23-0.14h-1.25l0.07-0.6h-0.21v-0.22
		h0.24l0.05-0.49C17.49,15.02,17.44,15.07,17.4,15.12 M18.63,16.08c0.01-0.07,0.01-0.2,0.01-0.38H17.7l-0.05,0.38h0.59
		c-0.03-0.03-0.08-0.06-0.15-0.11c-0.06-0.05-0.11-0.08-0.14-0.11l0.14-0.14c0.02,0.01,0.05,0.04,0.1,0.07
		c0.08,0.05,0.15,0.1,0.2,0.14l-0.14,0.15H18.63z M17.77,15.09l-0.05,0.38h0.93c0-0.2,0-0.33,0.01-0.38H17.77z M18.27,15.47
		c-0.09-0.08-0.19-0.15-0.29-0.22l0.14-0.14c0.05,0.03,0.11,0.08,0.19,0.13c0.04,0.03,0.07,0.06,0.1,0.08L18.27,15.47z"/>
	<path class="st0" d="M19.5,16.6c-0.05-0.03-0.12-0.07-0.21-0.11c0.02-0.03,0.05-0.08,0.09-0.14c0.07-0.11,0.13-0.19,0.16-0.25
		l0.22,0.09C19.68,16.34,19.59,16.48,19.5,16.6 M19.37,14.57v-0.15h0.45v-0.16h0.25v0.16h0.37v0.15h-0.37v0.14h0.34v0.13h-0.34v0.15
		h0.38v0.15h-0.38v0.13h-0.25v-0.13h-0.49v-0.15h0.49v-0.15h-0.41v-0.13h0.41v-0.14H19.37z M19.48,16.03v-0.16h1.72v-0.14h-1.63
		V15.6h1.63v-0.13h-1.71V15.3h1.96v0.73h-0.89c0.01,0.02,0.03,0.05,0.06,0.08c0.06,0.07,0.1,0.13,0.12,0.16l-0.2,0.1
		c-0.02-0.03-0.05-0.08-0.1-0.15c-0.05-0.07-0.09-0.12-0.11-0.15l0.07-0.04H19.48z M20.17,16.63c-0.19,0-0.29-0.09-0.28-0.26v-0.23
		h0.26v0.17c-0.01,0.09,0.04,0.13,0.15,0.12h0.41c0.11,0.01,0.18-0.03,0.2-0.1c0.02-0.04,0.03-0.09,0.04-0.15
		c0.03,0.01,0.09,0.03,0.16,0.06c0.03,0.01,0.06,0.02,0.08,0.03c-0.01,0.03-0.02,0.07-0.04,0.11c-0.01,0.03-0.01,0.05-0.02,0.06
		c-0.03,0.13-0.14,0.2-0.35,0.19H20.17z M20.55,14.57v-0.15h0.36v-0.16h0.24v0.16h0.46v0.15h-0.46v0.14h0.42v0.13h-0.42v0.15h0.49
		v0.15h-0.49v0.13h-0.24v-0.13h-0.38v-0.15h0.38v-0.15h-0.34v-0.13h0.34v-0.14H20.55z M21.49,16.57c-0.03-0.05-0.08-0.13-0.16-0.24
		c-0.05-0.07-0.08-0.13-0.1-0.16l0.22-0.09c0.03,0.05,0.08,0.11,0.14,0.2c0.06,0.08,0.1,0.14,0.13,0.18L21.49,16.57z"/>
	<path class="st0" d="M22.17,15.45c-0.03-0.05-0.08-0.11-0.14-0.19c-0.06-0.09-0.11-0.15-0.14-0.19l0.21-0.12
		c0.04,0.04,0.09,0.1,0.15,0.18c0.07,0.08,0.12,0.14,0.15,0.19L22.17,15.45z M22.17,16.63l-0.25-0.07c0.05-0.17,0.13-0.47,0.22-0.88
		c0.07,0.03,0.15,0.06,0.24,0.08c-0.03,0.11-0.07,0.27-0.12,0.5C22.22,16.42,22.19,16.55,22.17,16.63 M22.27,14.81
		c-0.04-0.05-0.1-0.12-0.17-0.23c-0.05-0.08-0.09-0.14-0.12-0.17l0.22-0.12c0.02,0.03,0.05,0.07,0.1,0.13
		c0.09,0.12,0.15,0.21,0.2,0.26L22.27,14.81z M22.56,15.65c-0.06-0.03-0.12-0.06-0.19-0.08c0.09-0.23,0.15-0.43,0.19-0.61L22.73,15
		c-0.03,0.11-0.07,0.28-0.13,0.5C22.58,15.57,22.56,15.61,22.56,15.65 M22.6,16.67c-0.01-0.01-0.04-0.03-0.07-0.06
		c-0.05-0.06-0.1-0.1-0.14-0.12c0.15-0.15,0.25-0.32,0.3-0.5c0.05-0.16,0.08-0.41,0.08-0.74v-0.94h0.24v0.96
		c0,0.37-0.03,0.65-0.08,0.83C22.88,16.28,22.76,16.47,22.6,16.67 M23.22,15.6c-0.01-0.03-0.02-0.06-0.03-0.11
		c-0.05-0.14-0.1-0.29-0.17-0.46l0.15-0.06c0.03,0.07,0.07,0.17,0.12,0.3c0.03,0.1,0.06,0.18,0.08,0.23v-1.1h0.23v2.1h-0.23v-0.97
		L23.22,15.6z M23.81,15.58c-0.01-0.05-0.04-0.11-0.07-0.2c-0.02-0.07-0.06-0.19-0.13-0.37l0.15-0.06c0.03,0.07,0.07,0.18,0.12,0.33
		c0.03,0.1,0.06,0.17,0.08,0.22v-1.19h0.24v2.32h-0.24v-1.12L23.81,15.58z"/>
</g>
<g>
	<path class="st1" d="M14.91,17.9c-0.04,0-0.08,0.01-0.11,0.01c-0.03,0-0.06,0.01-0.09,0.01c-0.03,0-0.06,0-0.08,0
		c-0.03,0-0.06,0-0.09,0s-0.06,0-0.1,0c-0.03,0-0.07,0-0.12-0.01l-0.04-0.13c0.06,0.01,0.12,0.01,0.17,0.01s0.09,0,0.14,0
		c0.04,0,0.08,0,0.13-0.01s0.09-0.01,0.14-0.02L14.91,17.9z"/>
	<path class="st1" d="M16.25,17.58c-0.01,0.02-0.02,0.04-0.03,0.06c-0.01,0.02-0.03,0.04-0.04,0.06c-0.01,0.01-0.02,0.01-0.03,0.01
		s-0.03,0-0.05,0s-0.04,0-0.07-0.01c-0.02,0-0.05-0.01-0.07-0.02c-0.03-0.01-0.06-0.02-0.1-0.03c-0.04-0.01-0.09-0.01-0.14-0.01
		c-0.05,0-0.1,0-0.15,0s-0.1,0.01-0.14,0.02c-0.01,0-0.02,0.01-0.02,0.01c0,0,0,0.01,0,0.02c0,0.01,0,0.01,0,0.02c0,0,0,0.01,0,0.02
		c0,0.1-0.02,0.18-0.04,0.26s-0.06,0.13-0.1,0.17c-0.02,0.02-0.04,0.03-0.06,0.03s-0.04,0.01-0.06,0c-0.02,0-0.04-0.01-0.05-0.02
		c-0.02-0.01-0.03-0.03-0.04-0.05c-0.01-0.03-0.02-0.04-0.02-0.05s0.01-0.02,0.03-0.03c0.04-0.02,0.08-0.04,0.11-0.07
		c0.04-0.03,0.06-0.07,0.08-0.11c0.03-0.06,0.05-0.14,0.05-0.22c0.01-0.08,0-0.16-0.03-0.23c-0.01-0.01-0.01-0.03-0.01-0.04
		c0-0.01,0-0.03,0.01-0.04c0-0.01,0.01-0.02,0.02-0.03s0.02-0.01,0.03,0c0.02,0.01,0.03,0.01,0.04,0.02
		c0.01,0.01,0.02,0.01,0.02,0.01c0,0,0.01,0,0.02,0c0.02,0,0.03,0,0.05,0c0.01,0,0.03,0,0.04,0s0.03,0,0.05,0
		c0.02,0,0.03,0,0.05-0.01c0.03,0,0.06-0.01,0.09-0.02c0.03-0.01,0.06-0.01,0.08-0.02c0.03-0.01,0.05-0.01,0.07-0.02
		s0.03-0.01,0.04-0.01c0.02-0.02,0.04-0.03,0.06-0.04s0.03,0,0.04,0.01c0.02,0.01,0.03,0.02,0.04,0.03
		c0.01,0.01,0.01,0.02,0.02,0.03c0.01,0.02,0.02,0.03,0.01,0.05c-0.01,0.02-0.02,0.03-0.04,0.04c-0.04,0.01-0.1,0.02-0.2,0.03
		s-0.23,0.01-0.38,0.01c-0.01,0-0.01,0-0.01,0c0,0,0,0.01,0,0.02c0,0.02,0,0.03,0,0.05s0,0.03,0,0.04c0,0.01,0,0.01,0,0.01
		c0,0,0.01,0,0.01,0c0.04,0,0.08-0.01,0.12-0.01s0.08,0,0.11-0.01c0.04,0,0.08,0,0.12,0c0.04,0,0.08,0,0.13,0c0.04,0,0.09,0,0.15,0
		c0.05,0,0.11,0,0.18,0c0.02,0,0.03,0,0.04,0.01C16.26,17.55,16.26,17.56,16.25,17.58z M16.07,17.92c0,0.03-0.01,0.07-0.01,0.1
		c0,0.04,0,0.07,0,0.09c0,0.04,0,0.06-0.01,0.08c0,0.02-0.01,0.04-0.02,0.04c-0.01,0.01-0.02,0.01-0.04,0.01
		c-0.01,0-0.03,0-0.04-0.01c-0.02-0.01-0.03-0.01-0.04-0.02c-0.01,0-0.03-0.01-0.05-0.01c-0.02,0-0.05,0-0.1,0s-0.11,0-0.18,0.01
		c-0.01,0-0.01,0-0.01,0c0,0-0.01,0.01-0.01,0.02c-0.01,0.01-0.02,0.02-0.03,0.03c-0.01,0-0.02,0-0.03,0
		c-0.01,0-0.02-0.01-0.02-0.02s-0.01-0.02-0.01-0.04c0-0.01,0-0.03,0-0.05c0-0.02,0-0.05,0-0.08c0-0.03,0-0.05-0.01-0.08
		c0-0.02-0.01-0.04-0.01-0.06c0-0.02,0-0.03,0-0.05c0-0.02,0-0.04,0-0.05c0-0.02,0.01-0.03,0.01-0.04c0.01-0.01,0.01-0.02,0.02-0.02
		c0.01-0.01,0.02-0.01,0.03-0.01c0.01,0,0.02,0,0.02,0c0.01,0.01,0.02,0.02,0.02,0.02c0,0,0.01,0,0.02,0c0.03,0,0.05,0,0.06,0
		c0.01,0,0.03-0.01,0.04-0.01c0.01,0,0.03-0.01,0.05-0.01c0.02,0,0.04,0,0.06,0s0.04,0,0.06,0c0.02,0,0.03,0,0.04,0.01
		c0.02,0.01,0.04,0.01,0.06,0.01c0.01,0,0.02,0,0.03,0c0.03-0.02,0.06-0.02,0.09,0c0.02,0.01,0.03,0.03,0.03,0.06
		S16.07,17.89,16.07,17.92z M15.93,17.93c0-0.02-0.01-0.03-0.01-0.04c-0.01-0.01-0.02-0.01-0.03-0.01c-0.02,0-0.04,0-0.07,0
		c-0.02,0-0.05,0-0.07,0s-0.06,0-0.09,0c-0.03,0-0.07,0.01-0.11,0.01c-0.01,0-0.01,0-0.02,0.01c0,0,0,0.01,0,0.02
		c0,0.03,0,0.05,0,0.09c0,0.03,0,0.06,0,0.08c0,0.01,0,0.02,0,0.02c0,0,0.01,0,0.02,0c0.02,0,0.05,0,0.08,0c0.03,0,0.06,0,0.09,0
		c0.03,0,0.06,0,0.08,0c0.03,0,0.05,0,0.06,0c0.01,0,0.02-0.01,0.03-0.01c0.01-0.01,0.01-0.02,0.01-0.03c0-0.01,0-0.02,0-0.03
		c0-0.01,0-0.02,0-0.04c0-0.01,0-0.02,0-0.04C15.93,17.94,15.93,17.93,15.93,17.93z"/>
	<path class="st1" d="M17.58,17.71c-0.01,0.01-0.02,0.02-0.03,0.02c-0.01,0-0.02,0-0.04-0.01c-0.02-0.02-0.04-0.04-0.06-0.06
		c-0.02-0.02-0.04-0.05-0.07-0.07c0,0-0.01,0-0.01,0c0,0-0.01,0-0.01,0.01c-0.04,0.03-0.08,0.06-0.12,0.08
		c-0.04,0.02-0.07,0.02-0.1,0.03c-0.03,0-0.06,0-0.09,0c-0.03,0-0.06,0-0.09-0.01c-0.03,0-0.05-0.01-0.08-0.02s-0.05-0.01-0.07-0.02
		c-0.02-0.01-0.05-0.01-0.08,0c-0.03,0.01-0.07,0.02-0.11,0.04c-0.01,0-0.02,0.01-0.03,0.01s-0.02,0-0.03,0c-0.01,0-0.02,0-0.03,0
		c-0.01,0-0.02-0.01-0.02-0.01c-0.01-0.01-0.02-0.02-0.02-0.04s0-0.03,0-0.05s0.01-0.03,0.02-0.04c0.01-0.01,0.03-0.02,0.05-0.02
		c0.02,0,0.03,0,0.05-0.01c0.02,0,0.04-0.01,0.06-0.02c0.03-0.01,0.05-0.03,0.08-0.04c0.03-0.01,0.05-0.03,0.07-0.05
		c0.02-0.02,0.05-0.04,0.07-0.07c0.03-0.03,0.05-0.06,0.08-0.1c0.02-0.02,0.03-0.04,0.05-0.04s0.04,0,0.06,0.02
		c0.02,0.02,0.04,0.04,0.04,0.06c0,0.02-0.01,0.04-0.02,0.05c-0.02,0.02-0.05,0.05-0.08,0.08c-0.04,0.03-0.08,0.06-0.13,0.09
		c-0.01,0.01-0.02,0.02-0.02,0.02c0,0.01,0,0.01,0.01,0.02c0.04,0.01,0.08,0.02,0.12,0.03s0.08,0.01,0.11,0.01
		c0.04,0,0.08-0.01,0.1-0.01c0.03,0,0.05-0.01,0.07-0.03c0.02-0.01,0.02-0.02,0.02-0.03c0-0.01-0.01-0.02-0.02-0.04
		c-0.01-0.02-0.02-0.03-0.03-0.05c-0.01-0.01-0.02-0.03-0.02-0.04c0-0.01,0-0.03,0-0.04c0-0.01,0.01-0.03,0.01-0.03
		c0.01-0.01,0.02-0.01,0.04-0.01s0.03,0.01,0.04,0.02c0.02,0.02,0.04,0.04,0.06,0.07c0.03,0.03,0.05,0.06,0.08,0.09
		c0.03,0.03,0.05,0.06,0.07,0.09s0.04,0.05,0.04,0.06c0.01,0.02,0.02,0.03,0.02,0.04S17.59,17.7,17.58,17.71z M17.41,17.91
		c0,0.01,0,0.01,0,0.02s0,0.02,0,0.04c0,0.02,0,0.04,0,0.06c0,0.03,0,0.06,0,0.1c0,0.04-0.01,0.07-0.03,0.09
		c-0.02,0.02-0.04,0.04-0.07,0.03c-0.01,0-0.02,0-0.03-0.01s-0.02-0.01-0.02-0.02c0,0-0.02-0.01-0.04-0.01
		c-0.02,0-0.05-0.01-0.09-0.01c-0.04,0-0.08,0-0.13,0c-0.05,0-0.1,0-0.16,0c0,0-0.01,0-0.01,0.01c-0.01,0.02-0.02,0.03-0.03,0.03
		s-0.03,0.01-0.04,0c-0.01,0-0.02-0.01-0.04-0.03c-0.01-0.02-0.02-0.04-0.02-0.07c0-0.04,0-0.08,0-0.11c0-0.03,0-0.06,0-0.08
		s0-0.04-0.01-0.06c0-0.02,0-0.03-0.01-0.04c0-0.02,0-0.04,0.01-0.07c0.01-0.03,0.02-0.04,0.04-0.05c0.01-0.01,0.03-0.01,0.04-0.01
		c0.01,0,0.03,0.01,0.03,0.03c0,0,0.01,0.01,0.01,0.01c0.07-0.01,0.13-0.01,0.18-0.02c0.05,0,0.08,0,0.09,0
		c0.02,0,0.04,0.01,0.07,0.01c0.03,0,0.06,0.01,0.1,0.01c0.02,0,0.03,0,0.04,0c0.01,0,0.01-0.01,0.02-0.01
		c0.03-0.03,0.06-0.02,0.1,0.01c0.02,0.02,0.03,0.04,0.03,0.06C17.42,17.85,17.42,17.88,17.41,17.91z M17.29,17.9
		c0-0.01,0-0.01-0.01-0.01c0,0-0.01,0-0.03,0c-0.09-0.01-0.17-0.01-0.25-0.01c-0.08,0-0.15,0-0.22,0.01c-0.01,0-0.01,0.01-0.01,0.02
		c0,0.06,0,0.12,0.01,0.18c0,0.01,0.01,0.01,0.01,0.01c0.03,0,0.05,0,0.08,0c0.03,0,0.05,0,0.08,0c0.03,0,0.06,0,0.1,0
		c0.04,0,0.08,0,0.12,0.01c0.02,0,0.03,0,0.04,0c0.01,0,0.02,0,0.03-0.01c0.01,0,0.01-0.01,0.02-0.02c0-0.01,0-0.02,0.01-0.03
		c0-0.01,0-0.02,0-0.04c0-0.01,0-0.03,0-0.04c0-0.01,0-0.03,0-0.04S17.29,17.91,17.29,17.9z"/>
	<path class="st1" d="M18.92,17.7c0,0.02,0,0.04,0,0.06c0,0.02,0,0.04,0,0.06c0,0.04,0,0.07,0,0.09c-0.01,0.02-0.02,0.04-0.03,0.05
		c-0.02,0.02-0.04,0.02-0.05,0.01c-0.01-0.01-0.02-0.03-0.02-0.06c0-0.01,0-0.02,0-0.03c0-0.01,0-0.03,0-0.04c0-0.02,0-0.03,0-0.04
		c0-0.01,0-0.03,0-0.04c0-0.02-0.01-0.04-0.01-0.05c0-0.01-0.01-0.02-0.03-0.02c-0.04-0.01-0.08-0.01-0.13-0.02
		s-0.11-0.01-0.17-0.01c-0.06,0-0.12,0-0.19,0.01s-0.12,0.01-0.17,0.02c-0.02,0-0.03,0.01-0.05,0.01c-0.01,0.01-0.02,0.02-0.03,0.03
		c-0.01,0.01-0.01,0.03-0.01,0.06c0,0.03,0,0.06,0,0.1c0,0.01,0,0.03-0.01,0.04c-0.01,0.01-0.02,0.02-0.03,0.02
		c-0.02,0.02-0.04,0.01-0.05-0.01c-0.01-0.02-0.02-0.06-0.01-0.12c0-0.01,0-0.03,0-0.04s0-0.03,0-0.06c0-0.02,0-0.04,0.01-0.06
		s0.01-0.04,0.02-0.05c0.01-0.01,0.02-0.02,0.03-0.03c0.01-0.01,0.02-0.01,0.03,0c0.01,0.01,0.02,0.02,0.03,0.02
		c0.01,0,0.02,0,0.02,0c0.03-0.01,0.06-0.01,0.09-0.01c0.03,0,0.05-0.01,0.07-0.01s0.04-0.01,0.06-0.01c0.02,0,0.03,0,0.05,0
		c0.01,0,0.01,0,0.01-0.01c0-0.01,0-0.02,0-0.03c0-0.01,0-0.02,0-0.03c0-0.02,0-0.03,0.01-0.04c0.01-0.01,0.03-0.01,0.05-0.01
		c0.03,0,0.05,0.01,0.06,0.03c0.01,0.02,0.02,0.04,0.03,0.08c0,0.01,0.01,0.01,0.01,0.01c0.03,0,0.06,0,0.08,0s0.04,0,0.06,0.01
		c0.02,0,0.04,0.01,0.05,0.01c0.02,0,0.03,0.01,0.05,0.01c0.01,0,0.03,0.01,0.04,0c0.02,0,0.03-0.01,0.03-0.02
		c0.02-0.02,0.03-0.02,0.04-0.02c0.01,0.01,0.03,0.02,0.04,0.03c0.01,0.01,0.02,0.03,0.03,0.05C18.92,17.66,18.92,17.68,18.92,17.7z
		 M18.92,17.41c-0.02,0.05-0.04,0.08-0.07,0.09c-0.02,0.01-0.04,0.01-0.06-0.01c-0.01-0.01-0.02-0.02-0.03-0.03
		c-0.01-0.01-0.02-0.02-0.03-0.03c-0.01-0.01-0.02-0.02-0.03-0.03c-0.01-0.01-0.02-0.02-0.04-0.04c0,0,0,0,0,0.01c0,0,0,0,0,0
		c0,0.03,0,0.05,0,0.07c0,0.02,0,0.03-0.01,0.05c0,0.01-0.01,0.02-0.02,0.03s-0.02,0.01-0.04,0c-0.01,0-0.02,0-0.03-0.01
		c0,0-0.01-0.01-0.01-0.02c0,0,0-0.01,0-0.02c0-0.01,0-0.02,0-0.03s0-0.02,0-0.03c0-0.01,0-0.02,0-0.03c0-0.01,0-0.01,0-0.02
		l-0.03,0.02c-0.01,0.01-0.02,0.02-0.03,0.02c-0.01,0.01-0.02,0.01-0.03,0.02c-0.02,0.01-0.04,0.01-0.05,0.01
		c-0.01,0-0.02-0.01-0.02-0.03c0-0.01,0-0.01,0-0.02c0,0,0,0,0,0c0,0,0,0,0,0c-0.01,0-0.01,0-0.02-0.01c-0.01,0-0.02-0.01-0.04-0.01
		c-0.01,0-0.01,0-0.01,0.01v0.07c0,0.02,0,0.04-0.01,0.04c-0.01,0.01-0.02,0.02-0.03,0.02c-0.01,0-0.02,0-0.03,0
		c-0.01-0.01-0.01-0.02-0.01-0.05c0-0.01,0-0.01,0-0.02c0-0.01,0-0.02,0-0.03c0-0.01-0.01-0.01-0.01,0
		c-0.02,0.02-0.03,0.03-0.05,0.05c-0.02,0.01-0.04,0.03-0.05,0.04c-0.02,0.02-0.05,0.03-0.07,0.04c-0.03,0-0.04,0-0.06-0.01
		c-0.01-0.01-0.02-0.03-0.03-0.04c-0.01-0.02-0.01-0.03-0.01-0.04c0-0.01,0-0.02,0-0.02s0.01-0.01,0.03-0.01
		c0.07-0.02,0.13-0.04,0.18-0.07c0.05-0.03,0.08-0.05,0.1-0.07c0.02-0.02,0.03-0.04,0.04-0.04s0.02,0,0.03,0.01
		c0.01,0.01,0.02,0.02,0.02,0.04c0,0.01,0,0.02,0,0.02c0,0,0,0,0.01,0.01c0.02,0.01,0.04,0.01,0.05,0.02s0.02,0.01,0.03,0.01
		c0.01,0.01,0.02,0.01,0.02,0.02c0.02-0.01,0.04-0.03,0.06-0.05s0.03-0.04,0.05-0.06c0.01-0.01,0.02-0.02,0.03-0.03
		c0.01-0.01,0.02-0.01,0.04,0c0.02,0.01,0.03,0.01,0.03,0.02c0.01,0.02,0.02,0.03,0.02,0.03c0.01,0.01,0.02,0.02,0.04,0.03
		c0.02,0.01,0.04,0.02,0.06,0.03c0.02,0.01,0.05,0.02,0.08,0.03c0.03,0.01,0.05,0.01,0.08,0.02c0.01,0,0.01,0.01,0.02,0.01
		C18.93,17.38,18.93,17.39,18.92,17.41z M18.78,18.11c0,0.01,0,0.03,0,0.04c0,0.02,0,0.03,0,0.04c0,0.05-0.01,0.08-0.04,0.1
		c-0.02,0.02-0.06,0.01-0.11-0.02c0,0-0.02-0.01-0.04-0.01c-0.02,0-0.05,0-0.09,0c-0.04,0-0.07,0-0.12,0c-0.04,0-0.09,0-0.14,0.01
		c-0.01,0-0.01,0-0.02,0.01c-0.01,0.01-0.02,0.02-0.03,0.03s-0.02,0.01-0.03,0.01c-0.01,0-0.02,0-0.03-0.01s-0.02-0.01-0.02-0.02
		c-0.01-0.02-0.01-0.05-0.01-0.07c0-0.02,0-0.06,0.01-0.09c0-0.02,0.01-0.04,0.01-0.07c0-0.03,0-0.06,0.01-0.08
		c0-0.03,0-0.06,0-0.08c0-0.03,0-0.05,0-0.07c0-0.02,0-0.05,0.01-0.07c0-0.02,0.01-0.03,0.02-0.04c0.01,0,0.02,0,0.03,0
		c0.01,0,0.02,0.01,0.03,0.01c0.01,0.01,0.02,0.01,0.02,0.01c0.06-0.01,0.11-0.01,0.16-0.02s0.09,0,0.12,0c0.02,0,0.04,0,0.05,0
		s0.02,0,0.03,0c0.01-0.01,0.02-0.01,0.03-0.01s0.02,0,0.04,0.01c0.02,0.01,0.03,0.02,0.03,0.04c0.01,0.02,0.01,0.04,0,0.05
		c0,0.02-0.01,0.04-0.01,0.06c0,0.02-0.01,0.03-0.01,0.04c0,0.02-0.01,0.03-0.03,0.04c-0.02,0.01-0.04,0-0.08-0.01
		c-0.01,0-0.05-0.01-0.11,0s-0.14,0-0.23,0.01c0,0-0.01,0-0.01,0.01s0,0.01,0,0.02c0,0.02,0,0.03,0,0.03c0,0,0.01,0.01,0.01,0
		c0.03,0,0.06-0.01,0.1-0.01S18.41,18,18.44,18s0.06,0,0.09,0c0.03,0,0.05,0,0.06,0c0.02,0,0.03,0,0.04,0
		c0.01,0,0.02-0.01,0.03-0.01c0.01-0.01,0.02-0.01,0.03-0.01c0.01,0,0.03,0.01,0.04,0.02c0.02,0.01,0.03,0.03,0.03,0.04
		S18.78,18.08,18.78,18.11z M18.65,18.14c0-0.02,0-0.03-0.01-0.04c-0.01-0.01-0.02-0.01-0.04-0.02c-0.04-0.01-0.08-0.01-0.14-0.01
		c-0.06,0-0.13,0-0.22,0.01c0,0-0.01,0-0.01,0s0,0.01,0,0.02c0,0.01,0,0.02,0,0.03s0,0.02,0,0.03c0,0.01,0,0.02,0.01,0.02
		c0.04,0,0.08,0,0.12,0c0.04,0,0.07,0,0.11,0c0.03,0,0.06,0,0.08,0c0.02,0,0.04,0,0.05,0c0.01,0,0.03,0,0.04-0.01
		S18.64,18.15,18.65,18.14z M18.59,17.82c0-0.01,0-0.02-0.01-0.02s-0.01-0.01-0.02-0.01c-0.03,0-0.05,0-0.07,0
		c-0.02,0-0.04,0-0.07,0s-0.05,0-0.08,0c-0.03,0-0.06,0-0.1,0c0,0,0,0-0.01,0.01c0,0,0,0.01,0,0.03c0,0.02,0,0.03,0,0.03
		c0,0,0,0.01,0.01,0.01c0.03,0,0.06,0,0.08,0c0.03,0,0.05,0,0.07,0c0.02,0,0.05,0,0.07,0c0.02,0,0.05,0,0.07,0
		c0.01,0,0.02,0,0.03-0.01C18.58,17.84,18.59,17.83,18.59,17.82z"/>
	<path class="st1" d="M19.69,17.95c-0.01,0.02-0.01,0.03-0.02,0.04c-0.01,0.01-0.02,0.02-0.04,0.03c-0.02,0.02-0.05,0.03-0.08,0.04
		c-0.03,0.01-0.06,0.02-0.09,0.03c-0.02,0-0.03,0.01-0.05,0.01c-0.02,0-0.03,0.01-0.05,0.01c-0.02,0-0.04,0.01-0.05,0.02
		c-0.02,0.01-0.03,0.01-0.04,0.02c-0.02,0.01-0.04,0.01-0.05,0.01c-0.01-0.01-0.02-0.03-0.03-0.06c0-0.02,0-0.03,0-0.05
		s0.01-0.03,0.03-0.05c0.01-0.01,0.02-0.02,0.03-0.02s0.02,0,0.03,0c0.01,0,0.03,0,0.05,0c0.02,0,0.05,0,0.08-0.01
		c0.01,0,0.02,0,0.02-0.01c0,0,0.01-0.01,0.01-0.03c0-0.02,0-0.04,0-0.07c0-0.02,0-0.05,0-0.07c0-0.02,0-0.03,0-0.03
		c0,0-0.01,0-0.02,0c-0.05,0.01-0.08,0.02-0.11,0.02c-0.02,0.01-0.03,0-0.03-0.02c0-0.03,0.01-0.06,0.04-0.09
		c0.01-0.01,0.02-0.02,0.03-0.02c0.01,0,0.01,0,0.02,0c0,0,0.01,0.01,0.02,0.01c0.01,0,0.02,0,0.03,0c0.01,0,0.02,0,0.02-0.01
		c0,0,0.01-0.01,0.01-0.02c0-0.02,0-0.04,0-0.06s0-0.04,0-0.05c0-0.02,0-0.03-0.01-0.03c0,0-0.01,0-0.02,0c-0.03,0-0.06,0-0.07,0.01
		c-0.02,0-0.03,0.01-0.04,0.01c-0.01,0.01-0.02,0.01-0.03,0.01c-0.01,0-0.01,0-0.02-0.01c0-0.01-0.01-0.01-0.01-0.02s0-0.02,0-0.03
		c0-0.02,0.01-0.04,0.02-0.05c0.01-0.01,0.02-0.03,0.03-0.04c0.01-0.01,0.02-0.01,0.03-0.01c0.01,0,0.02,0,0.03,0.01
		c0.01,0.01,0.02,0.01,0.04,0.01s0.03,0,0.05,0c0.01,0,0.02,0,0.04,0c0.02,0,0.03,0,0.05,0c0.02,0,0.04,0,0.05,0
		c0.02,0,0.03,0,0.04,0c0.01,0,0.02,0.01,0.03,0.02s0.01,0.02,0.01,0.05c0,0.01,0,0.02-0.01,0.03c-0.01,0.01-0.02,0.01-0.03,0.01
		c-0.01,0-0.02,0-0.03,0c-0.01,0-0.02,0-0.03,0s-0.02,0-0.02,0.01s0,0.01,0,0.03c0,0.02,0,0.03,0,0.05c0,0.02,0,0.04,0,0.06
		c0,0.01,0,0.02,0,0.02c0,0,0.01,0.01,0.02,0.01c0.01,0,0.03,0,0.04,0c0.01,0,0.03,0,0.04,0c0.02,0,0.03,0.02,0.04,0.04
		c0,0.03-0.01,0.05-0.04,0.04c-0.01,0-0.02,0-0.03,0c-0.01,0-0.02,0-0.04,0c-0.01,0-0.01,0-0.02,0.01s0,0.01,0,0.03
		c0,0.02,0,0.04,0,0.06c0,0.02,0,0.04,0,0.06c0,0.01,0,0.02,0,0.03s0.01,0,0.02,0c0.01,0,0.03-0.01,0.04-0.01s0.03-0.01,0.04-0.01
		c0.02-0.01,0.04-0.01,0.04,0S19.69,17.94,19.69,17.95z M20.39,18.13c-0.01,0.03-0.02,0.05-0.03,0.07
		c-0.01,0.02-0.02,0.04-0.04,0.05c-0.02,0.02-0.04,0.03-0.07,0.03c-0.02,0-0.05-0.01-0.07-0.02c-0.02-0.01-0.04-0.02-0.07-0.02
		c-0.03-0.01-0.07-0.01-0.1-0.02c-0.04,0-0.07-0.01-0.11-0.01c-0.04,0-0.06,0-0.09,0c-0.05,0.01-0.08,0.01-0.11,0.02
		c-0.03,0.01-0.05,0.01-0.06,0.02c-0.03,0.02-0.05,0.03-0.07,0.02s-0.03-0.02-0.03-0.04c0-0.01,0-0.02,0-0.03
		c0-0.01,0.01-0.02,0.02-0.03c0.01-0.02,0.03-0.03,0.04-0.04c0.01-0.01,0.02-0.02,0.03-0.02c0.01,0,0.02-0.01,0.03,0
		s0.02,0,0.03,0.01c0.02,0.01,0.03,0.01,0.04,0.01c0.01,0,0.02,0,0.04-0.01c0,0,0.01,0,0.03,0c0.02,0,0.04,0,0.07,0
		c0.01,0,0.02,0,0.02-0.01s0-0.01,0-0.03c0-0.01,0-0.02,0-0.03c0-0.01,0-0.02,0-0.02c0-0.01,0-0.02,0-0.02c0,0-0.01-0.01-0.02-0.01
		c-0.03,0-0.06,0-0.07,0.01c-0.01,0-0.03,0-0.04,0.01c-0.02,0.01-0.04,0.02-0.05,0.02c-0.01,0-0.02-0.01-0.02-0.02
		c-0.01-0.02,0-0.04,0.01-0.07c0.01-0.01,0.02-0.02,0.03-0.03c0.01,0,0.02,0,0.03,0c0.01,0,0.02,0,0.04,0c0.02,0,0.03,0,0.04,0
		c0,0,0.01,0,0.01,0c0,0,0.01,0,0.02,0c0.01,0,0.02,0,0.02-0.01c0,0,0-0.01,0-0.02v-0.03c0-0.01,0-0.02,0-0.03s-0.01-0.01-0.02,0
		c-0.01,0-0.02,0-0.03,0s-0.02,0-0.03,0c0,0-0.01,0-0.01,0c-0.01,0-0.01,0.01-0.02,0.01c0,0-0.01,0-0.01,0.01s-0.01,0-0.01,0
		c-0.01,0-0.02,0-0.03-0.01c-0.01-0.01-0.02-0.02-0.02-0.04c0-0.01,0-0.02,0-0.03s0-0.04,0-0.06c0-0.06,0-0.11,0-0.15
		c0-0.04-0.01-0.07-0.01-0.1c-0.01-0.04-0.01-0.07-0.01-0.09c0-0.02,0.01-0.04,0.02-0.06c0.01-0.01,0.03-0.02,0.04-0.02
		s0.03,0.01,0.04,0.03c0.01,0.01,0.01,0.01,0.01,0.02c0,0,0.01,0,0.02,0c0.03,0,0.07,0,0.11-0.01c0.04,0,0.1,0,0.16,0
		c0.01,0,0.01,0,0.02,0c0.01,0,0.01-0.01,0.02-0.02c0.01-0.01,0.02-0.02,0.03-0.02s0.03,0.01,0.05,0.02
		c0.02,0.01,0.03,0.03,0.03,0.05s0,0.04,0,0.07c0,0.01,0,0.02-0.01,0.05c0,0.02,0,0.05,0,0.08c0,0.03,0,0.05,0,0.08
		c0,0.03,0,0.04,0,0.06c0,0.05,0,0.09,0,0.12c0,0.02-0.01,0.04-0.03,0.05s-0.03,0.01-0.05-0.01c0,0-0.02-0.01-0.03-0.01
		c-0.02,0-0.04,0-0.07,0c0,0-0.01,0-0.01,0.01c0,0,0,0.01,0,0.03v0.03c0,0.01,0,0.02,0,0.02c0,0,0.01,0.01,0.02,0.01
		c0.03,0,0.06,0,0.09,0c0.03,0,0.06,0.01,0.08,0.01c0.01,0,0.02,0.01,0.02,0.01s0,0.01,0,0.02c0,0.01,0,0.02-0.01,0.02
		c-0.01,0-0.01,0.01-0.03,0.01c-0.02,0-0.04,0.01-0.07,0.01c-0.03,0-0.05,0-0.08,0c-0.02,0-0.03,0-0.03,0c0,0,0,0.02,0,0.03
		c0,0.01,0,0.01,0,0.02c0,0.01,0,0.01,0,0.02c0,0.01,0,0.02,0,0.02c0,0,0.01,0.01,0.02,0.01c0.03,0,0.06,0,0.09,0s0.06,0,0.09,0
		c0.02,0,0.04,0,0.06,0c0.02,0,0.06,0,0.1,0C20.4,18.1,20.4,18.11,20.39,18.13z M19.91,17.43c0-0.02,0-0.03,0-0.03
		c0,0-0.01,0-0.02,0c-0.02,0-0.04,0-0.06,0.01c-0.01,0-0.02,0-0.02,0.01s0,0.01,0,0.03c0,0.01,0,0.02,0,0.03c0,0.01,0,0.02,0,0.03
		c0,0.02,0.01,0.02,0.02,0.02c0.01,0,0.02,0,0.03,0s0.02,0,0.03,0c0.01,0,0.02,0,0.02-0.01c0,0,0.01-0.01,0-0.03V17.43z
		 M19.91,17.63c0-0.01,0-0.02,0-0.02s-0.01,0-0.02,0c-0.02,0-0.04,0-0.06,0.01c-0.01,0-0.02,0-0.02,0.01c0,0,0,0.01,0,0.02v0.05
		c0,0.01,0,0.02,0.01,0.02s0.01,0.01,0.02,0.01c0.01,0,0.02,0,0.03,0c0.01,0,0.02,0,0.02,0c0.01,0,0.02,0,0.03,0s0-0.01,0-0.03
		V17.63z M20.12,17.44c0-0.03-0.01-0.05-0.04-0.05c-0.02,0-0.03,0-0.04,0c-0.01,0-0.02,0-0.02,0.01s0,0.01,0,0.03v0.06
		c0,0.01,0,0.02,0,0.03c0,0,0.01,0.01,0.02,0.01c0.01,0,0.02,0,0.03,0s0.02,0,0.03,0c0.01,0,0.01,0,0.02,0s0-0.01,0-0.03V17.44z
		 M20.12,17.65c0-0.02,0-0.03,0-0.03c0,0-0.01,0-0.01,0c-0.01,0-0.02,0-0.04,0s-0.02,0-0.03,0c-0.01,0-0.02,0-0.02,0
		c0,0,0,0.01,0,0.03v0.04c0,0.01,0,0.02,0,0.03c0,0,0.01,0,0.02,0c0.01,0,0.01,0,0.02,0s0.01,0,0.02,0c0.02,0,0.03-0.02,0.03-0.04
		c0,0,0-0.01,0-0.01C20.12,17.65,20.12,17.65,20.12,17.65z"/>
	<path class="st1" d="M21.03,17.92c0.01,0.02,0.01,0.03,0.01,0.05c0,0.02-0.01,0.03-0.02,0.04c-0.02,0.02-0.04,0.05-0.08,0.07
		c-0.03,0.02-0.07,0.05-0.11,0.07s-0.08,0.04-0.11,0.06c-0.04,0.02-0.07,0.03-0.09,0.04c-0.02,0-0.04,0-0.06-0.02
		c-0.01-0.01-0.01-0.02-0.01-0.03c0-0.01,0.01-0.02,0.02-0.02c0.05-0.02,0.09-0.05,0.13-0.07s0.07-0.04,0.09-0.06
		c0.03-0.02,0.05-0.04,0.07-0.06s0.03-0.04,0.05-0.06c0.02-0.03,0.04-0.05,0.06-0.05C21,17.89,21.02,17.9,21.03,17.92z M21.57,17.82
		c0,0.01,0,0.01-0.01,0.01c0,0-0.01,0-0.01,0c-0.01,0-0.01,0-0.02,0c-0.01,0-0.02-0.01-0.04-0.01c-0.02-0.01-0.04-0.01-0.06-0.02
		c-0.02-0.01-0.03-0.01-0.04-0.02c0,0-0.01,0-0.01,0c-0.02,0.02-0.05,0.04-0.06,0.05c-0.02,0.01-0.04,0.03-0.05,0.04
		c0,0-0.01,0.01-0.01,0.01c0,0.02,0,0.03,0,0.05c0,0.01,0,0.03,0,0.05c0,0.02,0,0.04,0,0.06c0,0.02,0,0.04,0,0.07
		c0,0.06-0.01,0.11-0.04,0.14s-0.07,0.04-0.13,0.03c-0.02-0.01-0.05-0.02-0.07-0.05s-0.04-0.06-0.05-0.09
		c-0.01-0.03,0-0.04,0.02-0.03c0.02,0.01,0.03,0.01,0.04,0.02c0.01,0,0.02,0.01,0.03,0.01c0.01,0,0.01,0,0.02,0
		c0,0,0.01,0,0.01-0.01c0.01,0,0.01-0.01,0.01-0.01c0-0.01,0.01-0.02,0.01-0.03c0-0.02,0-0.04,0-0.07c0-0.03,0-0.07,0-0.12
		c0-0.01,0-0.02-0.01-0.02c-0.01,0-0.02,0-0.03-0.01c-0.01,0-0.02,0-0.03-0.01s-0.02,0-0.03,0c-0.01,0-0.02,0-0.04,0
		c-0.01,0-0.03,0.01-0.05,0.02c-0.02,0.01-0.04,0.02-0.06,0.03c-0.02,0.01-0.04,0.01-0.05,0c-0.01-0.01-0.02-0.03-0.02-0.05
		c0-0.02,0-0.04,0.01-0.05c0.01-0.01,0.03-0.02,0.06-0.03c0.02,0,0.03-0.01,0.05-0.02c0.02-0.01,0.04-0.02,0.06-0.04
		c0.02-0.02,0.02-0.03-0.01-0.03c-0.02,0-0.04,0-0.06,0.01c-0.02,0-0.03,0.01-0.04,0.01c-0.03,0.01-0.04,0.01-0.06,0
		c-0.01-0.01-0.02-0.03-0.03-0.06c0-0.02,0-0.03,0.01-0.05c0.01-0.02,0.03-0.03,0.04-0.03c0.03-0.01,0.07-0.02,0.1-0.04
		s0.06-0.04,0.08-0.06c0.01-0.01,0.02-0.02,0.01-0.03c0-0.01-0.01-0.01-0.02-0.01c-0.03,0-0.07,0-0.1,0.01s-0.06,0-0.09,0
		c-0.03,0-0.05,0-0.07,0c-0.02,0-0.03,0-0.04,0c-0.01,0-0.03-0.01-0.03-0.02s-0.01-0.02-0.01-0.03c0-0.03,0.01-0.05,0.04-0.05
		c0.03,0,0.05,0,0.08,0c0.02,0,0.05,0,0.08,0c0.03,0,0.06,0,0.09-0.01c0.04,0,0.08-0.01,0.12-0.01c0,0,0.01,0,0.03,0
		c0.02,0,0.04-0.01,0.07-0.01s0.05-0.01,0.08-0.01c0.03,0,0.06-0.01,0.08-0.01c0.03,0,0.05-0.01,0.07-0.01
		c0.02,0,0.03-0.01,0.04-0.01c0.02-0.01,0.03-0.01,0.04-0.01c0.01,0,0.01,0.01,0.03,0.02c0.01,0.01,0.02,0.02,0.03,0.04
		s0.02,0.03,0.02,0.03c0,0.02,0,0.03-0.01,0.04c-0.01,0.01-0.02,0.01-0.05,0.01c-0.04,0-0.09,0.01-0.14,0.01
		c-0.05,0-0.1,0.01-0.14,0.02c-0.01,0-0.01,0-0.02,0.01c0,0-0.01,0.01-0.02,0.02c-0.01,0.02-0.03,0.03-0.04,0.04
		s-0.03,0.02-0.04,0.03c-0.01,0.01-0.03,0.02-0.04,0.03s-0.03,0.01-0.05,0.02c0,0-0.01,0-0.01,0.01c0,0,0,0.01,0,0.01
		c0,0,0,0.01,0.01,0.01c0.01,0,0.02,0.01,0.03,0.01c0.01,0,0.02,0,0.03-0.01c0.04-0.02,0.07-0.04,0.1-0.06
		c0.03-0.02,0.05-0.04,0.06-0.05c0.02-0.03,0.04-0.04,0.06-0.04c0.02,0,0.04,0.02,0.05,0.04c0.01,0.01,0.01,0.03,0,0.05
		c0,0.02-0.01,0.03-0.03,0.04c-0.03,0.01-0.05,0.02-0.07,0.04c-0.02,0.01-0.04,0.02-0.06,0.03c-0.02,0.01-0.04,0.02-0.05,0.03
		s-0.04,0.03-0.06,0.04c-0.02,0.01-0.02,0.02-0.03,0.03c0,0.01,0,0.02,0.02,0.02c0.02,0.01,0.05,0.01,0.07,0.02s0.04,0.01,0.05,0
		c0.02,0,0.03-0.01,0.05-0.01s0.03-0.02,0.05-0.03c0.01-0.01,0.01-0.02,0-0.03c0,0-0.01-0.01-0.01-0.01s-0.01-0.01-0.01-0.01
		c-0.01-0.01-0.02-0.02-0.02-0.04c0-0.01,0-0.02,0.01-0.03c0.01-0.01,0.02-0.02,0.04-0.02c0.01,0,0.03,0.01,0.06,0.03
		c0.03,0.02,0.06,0.04,0.08,0.05c0.02,0.01,0.04,0.03,0.06,0.04c0.02,0.01,0.03,0.02,0.04,0.04c0.01,0.01,0.02,0.02,0.03,0.04
		c0.01,0.01,0.01,0.01,0.01,0.02S21.57,17.81,21.57,17.82z M21.78,18.13c0,0.01-0.01,0.03-0.02,0.04c-0.01,0.02-0.02,0.03-0.03,0.04
		c-0.01,0.01-0.03,0.02-0.04,0.02c-0.01,0-0.02,0-0.04,0c-0.01,0-0.03-0.01-0.04-0.03c-0.02-0.01-0.04-0.03-0.06-0.05
		c-0.01-0.01-0.02-0.02-0.04-0.04s-0.03-0.04-0.05-0.06s-0.03-0.04-0.04-0.05c-0.01-0.02-0.02-0.03-0.03-0.03
		c-0.01-0.01-0.02-0.02-0.03-0.03s-0.02-0.02-0.04-0.03c0,0-0.01-0.01-0.01-0.01c0-0.01,0-0.01,0.01-0.02
		c0-0.01,0.01-0.01,0.01-0.02c0-0.01,0.01-0.01,0.02-0.01c0,0,0.01,0.01,0.04,0.02c0.02,0.01,0.05,0.03,0.08,0.04
		s0.06,0.03,0.09,0.05c0.03,0.02,0.05,0.03,0.07,0.04c0.01,0.01,0.03,0.02,0.06,0.03s0.05,0.03,0.09,0.04
		C21.78,18.1,21.79,18.11,21.78,18.13z"/>
	<path class="st1" d="M22.49,17.86c0,0.02,0,0.04-0.02,0.06c-0.03,0.03-0.07,0.06-0.12,0.1s-0.13,0.08-0.23,0.12
		c-0.03,0.01-0.05,0.01-0.07,0s-0.03-0.03-0.04-0.06c0-0.03,0-0.05,0.01-0.07s0.03-0.03,0.06-0.04c0.04-0.01,0.09-0.02,0.15-0.04
		c0.06-0.02,0.12-0.05,0.2-0.09c0.02-0.01,0.03-0.01,0.03-0.01C22.49,17.85,22.49,17.85,22.49,17.86z M22.48,17.47
		c0.01,0.02,0.01,0.04,0.01,0.06c0,0.02-0.01,0.04-0.03,0.05c-0.01,0.02-0.03,0.04-0.05,0.06c-0.02,0.02-0.06,0.05-0.11,0.09
		c-0.01,0.01-0.01,0.01-0.01,0.01c0,0,0.01,0,0.02,0c0.03-0.01,0.05-0.01,0.08-0.02c0.03-0.01,0.05-0.01,0.07-0.02
		c0.02-0.01,0.03-0.01,0.03,0c0,0.01,0,0.02-0.02,0.05c0,0.01-0.01,0.02-0.02,0.03s-0.02,0.02-0.03,0.02
		c-0.01,0.01-0.02,0.01-0.03,0.02c-0.01,0.01-0.02,0.01-0.03,0.01c-0.03,0.01-0.06,0.02-0.09,0.04c-0.03,0.01-0.07,0.02-0.1,0.03
		c-0.02,0.01-0.03,0.01-0.04,0s-0.02-0.02-0.03-0.05c-0.01-0.03-0.01-0.05-0.01-0.07s0.02-0.03,0.04-0.04
		c0.02-0.01,0.04-0.02,0.06-0.04c0.02-0.02,0.04-0.04,0.06-0.06c0,0,0-0.01,0-0.01c0,0,0,0-0.01,0c-0.02,0.01-0.04,0.01-0.06,0.02
		c-0.02,0-0.03,0.01-0.04,0.01c-0.03,0.01-0.05,0.01-0.06,0s-0.03-0.03-0.03-0.07c0-0.03,0-0.05,0-0.07
		c0.01-0.01,0.02-0.03,0.04-0.04c0.03-0.02,0.05-0.03,0.07-0.05c0.02-0.02,0.04-0.03,0.06-0.05c0.02-0.02,0.03-0.04,0.05-0.06
		s0.03-0.05,0.04-0.07c0.01-0.02,0.02-0.02,0.04-0.02s0.04,0.01,0.05,0.03c0.01,0.02,0.02,0.04,0.02,0.07
		c0,0.03-0.01,0.04-0.03,0.06c-0.02,0.02-0.05,0.04-0.08,0.06c-0.03,0.02-0.07,0.05-0.12,0.08c-0.02,0.01-0.02,0.02-0.02,0.02
		c0,0.01,0.01,0.01,0.03,0.01c0.03,0,0.05,0,0.06,0s0.03,0,0.05-0.01c0.01,0,0.02-0.01,0.02-0.02c0.01-0.01,0.01-0.02,0.02-0.04
		s0.02-0.02,0.02-0.04C22.43,17.41,22.45,17.42,22.48,17.47z M23.02,17.44c0,0.02,0,0.04-0.01,0.04c-0.01,0.01-0.03,0.01-0.06,0.01
		c-0.05,0-0.09-0.01-0.14-0.01c-0.01,0-0.02,0-0.02,0.01c-0.02,0.03-0.03,0.05-0.05,0.07s-0.03,0.04-0.05,0.05
		c-0.01,0.01-0.01,0.01-0.01,0.01c0,0,0.01,0.01,0.02,0.01c0.02,0,0.03,0,0.05,0c0.02,0,0.04,0,0.05,0c0.01,0,0.01-0.01,0-0.02
		c-0.01-0.02-0.01-0.04-0.01-0.05c0-0.01,0.01-0.02,0.02-0.04c0.02-0.02,0.04-0.02,0.07,0.01c0.02,0.02,0.04,0.04,0.05,0.07
		s0.03,0.05,0.05,0.08C23,17.7,23,17.71,23,17.72s0,0.02,0,0.04c0,0.01-0.01,0.01-0.02,0.01c-0.01,0-0.02-0.01-0.04-0.02
		c-0.01-0.01-0.01-0.01-0.02-0.01c-0.01,0-0.01-0.01-0.02-0.02c-0.01-0.01-0.02-0.01-0.03-0.01c-0.02,0-0.03,0-0.05,0
		c-0.01,0-0.03,0-0.04,0s-0.03,0-0.05,0c-0.02,0-0.04,0-0.06,0c-0.01,0-0.01,0,0,0.01c0.01,0.02,0.02,0.04,0.02,0.08
		c0,0.11-0.01,0.2-0.04,0.27s-0.07,0.12-0.12,0.15c-0.02,0.01-0.05,0.02-0.07,0.02c-0.02,0-0.04,0-0.06,0
		c-0.02,0-0.04-0.01-0.05-0.03c-0.02-0.01-0.03-0.03-0.04-0.06c-0.01-0.02-0.01-0.03,0-0.04c0,0,0.01-0.01,0.03-0.01
		c0.01,0,0.02,0,0.04,0c0.01,0,0.03,0,0.05-0.01c0.07-0.02,0.12-0.05,0.14-0.09c0.03-0.04,0.04-0.11,0.04-0.19c0-0.02,0-0.03,0-0.04
		c0-0.01,0-0.02,0-0.03c0-0.01,0-0.02-0.01-0.02c0,0-0.01,0-0.02,0.01c0,0-0.01,0-0.02,0.01c-0.02,0.01-0.03,0.01-0.04,0
		s-0.02-0.03-0.03-0.05c-0.01-0.04,0.01-0.07,0.04-0.08c0.01-0.01,0.03-0.01,0.05-0.03s0.03-0.03,0.04-0.04
		c0.01-0.01,0.01-0.02,0.02-0.03c0-0.01,0.01-0.02,0.01-0.03c0-0.01,0-0.01-0.01-0.01c-0.03,0-0.05,0.01-0.06,0.01
		c-0.01,0-0.03,0.01-0.04,0.02c-0.02,0.01-0.03,0.01-0.04,0.01c-0.01,0-0.01-0.01-0.02-0.02c0-0.01,0-0.03,0-0.04
		s0.01-0.03,0.02-0.05c0.02-0.03,0.04-0.03,0.07-0.03c0.01,0,0.02,0,0.03,0.01c0.01,0,0.02,0,0.03,0.01c0.01,0,0.02,0,0.02-0.02
		c0-0.02,0-0.03,0-0.05c0-0.02,0-0.03,0-0.04c0-0.03,0.01-0.05,0.02-0.06c0.01-0.01,0.02-0.02,0.05-0.02c0.01,0,0.02,0,0.04,0.02
		c0.01,0.01,0.02,0.03,0.03,0.05c0,0.01,0,0.02,0,0.03c0,0.02,0,0.03,0,0.05c0,0.01,0,0.02,0.01,0.04c0.01,0.01,0.01,0.01,0.02,0.01
		c0.02,0,0.03,0,0.05,0c0.01,0,0.03,0,0.04,0c0.01,0,0.02,0,0.04,0c0.01,0,0.03,0,0.04,0c0.01,0,0.02,0,0.02,0.01
		C23.02,17.42,23.02,17.42,23.02,17.44z M23.17,18.05c0,0.03-0.01,0.06-0.03,0.1c-0.02,0.04-0.04,0.07-0.06,0.1
		c-0.02,0.03-0.04,0.04-0.07,0.05c-0.02,0.01-0.04,0.01-0.06,0c-0.03-0.01-0.05-0.02-0.08-0.03c-0.02-0.01-0.04-0.03-0.06-0.05
		s-0.03-0.04-0.04-0.06c-0.01-0.02-0.02-0.04-0.03-0.05c-0.01-0.02-0.01-0.04-0.01-0.07c0-0.02-0.01-0.04-0.01-0.07
		c0-0.02,0-0.05,0-0.08c0-0.03,0-0.06,0.01-0.09c0-0.04,0.01-0.06,0.02-0.07c0.01-0.01,0.02-0.01,0.04-0.01
		c0.01,0.01,0.02,0.02,0.03,0.03c0,0.01,0,0.03,0,0.04c-0.01,0.06-0.02,0.11-0.01,0.15c0,0.04,0.02,0.07,0.04,0.09
		c0.02,0.02,0.05,0.03,0.08,0.03c0.03,0,0.05,0,0.08,0c0.03,0,0.05-0.01,0.07-0.02c0.02-0.01,0.04-0.02,0.06-0.04
		c0.01-0.01,0.02-0.01,0.02-0.01C23.17,18.01,23.17,18.03,23.17,18.05z"/>
	<path class="st1" d="M23.94,17.9c-0.04,0-0.08,0.01-0.11,0.01c-0.03,0-0.06,0.01-0.09,0.01s-0.06,0-0.08,0c-0.03,0-0.06,0-0.09,0
		s-0.06,0-0.1,0c-0.03,0-0.07,0-0.12-0.01l-0.04-0.13c0.06,0.01,0.12,0.01,0.17,0.01s0.09,0,0.14,0c0.04,0,0.08,0,0.13-0.01
		c0.04,0,0.09-0.01,0.14-0.02L23.94,17.9z"/>
</g>
<g>
	<path class="st2" d="M11.81,15.82h-0.34v-0.34v-1.91H8.64v4.07v1.36h3.39c0.75,0,1.36-0.61,1.36-1.36v-1.81H11.81z M12.11,18.03
		c0,0.09-0.08,0.17-0.17,0.17h-0.16h-0.13h-0.17v-0.17c0,0,0,0,0,0V17.4c0-0.19-0.15-0.34-0.34-0.34H10.9
		c-0.19,0-0.34,0.15-0.34,0.34h0v0.63c0,0.09-0.08,0.17-0.17,0.17h-0.16h-0.13H9.92v-0.17v-0.08v-2.32v-0.08v-0.17h0.17h0.13h0.16
		c0.09,0,0.17,0.08,0.17,0.17v0.79c0,0,0,0.01,0,0.01v0.16h0.34c0,0-0.01,0-0.01,0h0.41h0c0.43,0,0.78,0.34,0.81,0.77V18.03z"/>
	<rect x="11.81" y="13.57" class="st3" width="1.57" height="1.91"/>
</g>
</svg>
