<?xml version="1.0" encoding="utf-8"?>
<!-- Generator: Adobe Illustrator 23.0.3, SVG Export Plug-In . SVG Version: 6.00 Build 0)  -->
<svg version="1.1" id="图层_1" xmlns="http://www.w3.org/2000/svg" xmlns:xlink="http://www.w3.org/1999/xlink" x="0px" y="0px"
	 viewBox="0 0 200 60" style="enable-background:new 0 0 200 60;" xml:space="preserve">
<style type="text/css">
	.st0{fill:#FFFFFF;}
</style>
<g>
	<polygon class="st0" points="76.4,32.8 76.4,30.1 86.3,30.1 86.3,8.8 89.6,8.8 89.6,16.5 100,16.5 100,19.5 89.6,19.5 89.6,30.1 
		102,30.1 102,32.8 	"/>
	<path class="st0" d="M108,21.4c-1.2-1.1-2.6-2.3-4.1-3.4l1.8-1.9c1.5,1.1,2.9,2.2,4.2,3.2L108,21.4z M107.2,34.2l-2.8-0.8
		c1-3.5,1.8-6.6,2.5-9.6c0.9,0.4,1.8,0.7,2.8,0.9C108.5,29.1,107.7,32.2,107.2,34.2 M108.8,14.3c-0.3-0.2-0.7-0.6-1.3-1.1
		c-0.5-0.5-1.4-1.3-2.8-2.4l1.8-2.1c0.8,0.7,2.2,1.8,4.2,3.3L108.8,14.3z M111.7,17.8c-0.1-0.1-0.1-0.2-0.2-0.3
		c-0.4-0.5-1-1.1-1.6-1.7c2.2-2.1,4-4.6,5.2-7.4l3,0.3c-0.4,0.7-0.8,1.4-1.1,2.1h12.6v2.4h-14c-0.1,0.2-0.4,0.5-0.8,1
		c-0.3,0.5-0.5,0.9-0.8,1.1H128v1.9c-0.1,1.9-0.1,3.4-0.1,4.5h2.3V24h-2.4l-0.1,4.1h1.9v2.4h-2.1c-0.1,2.4-1.5,3.7-4.3,3.7h-4.1
		c-0.2-0.7-0.4-1.5-0.6-2.3h1.8c0.9,0.1,1.5,0.1,2.1,0.1c1.5,0.1,2.3-0.4,2.5-1.5h-13.4l0.8-6.5H110v-2.4h2.6l0.5-5.3
		C112.7,16.7,112.2,17.3,111.7,17.8 M125,28.1c0.1-0.8,0.1-2.2,0.1-4.1h-10.1l-0.5,4.1h6.4c-0.4-0.3-0.9-0.7-1.6-1.2
		c-0.6-0.5-1.1-0.9-1.5-1.2l1.5-1.5c0.2,0.1,0.6,0.4,1.1,0.8c0.9,0.6,1.6,1.1,2.2,1.5l-1.5,1.6H125z M115.7,17.5l-0.5,4.1h10
		c0-2.2,0-3.5,0.1-4.1H115.7z M121.1,21.5c-1-0.9-2-1.7-3.1-2.4l1.5-1.5c0.5,0.4,1.2,0.8,2.1,1.4c0.4,0.4,0.8,0.7,1.1,0.9
		L121.1,21.5z"/>
	<path class="st0" d="M134.3,33.7c-0.5-0.4-1.3-0.8-2.3-1.2c0.2-0.4,0.5-0.9,1-1.5c0.8-1.1,1.4-2,1.7-2.7l2.4,1
		C136.2,30.9,135.3,32.4,134.3,33.7 M132.9,11.9v-1.6h4.9V8.5h2.7v1.7h4v1.6h-4v1.5h3.7v1.4h-3.7v1.6h4.1V18h-4.1v1.4h-2.7V18h-5.3
		v-1.6h5.3v-1.6h-4.4v-1.4h4.4v-1.5H132.9z M134,27.5v-1.7h18.5v-1.5H135v-1.4h17.5v-1.4h-18.3v-1.8h21v7.9h-9.5
		c0.1,0.2,0.4,0.5,0.7,0.9c0.6,0.8,1.1,1.4,1.3,1.7l-2.2,1.1c-0.2-0.4-0.6-0.9-1.1-1.6c-0.6-0.8-1-1.3-1.2-1.6l0.8-0.4H134z
		 M141.4,34c-2.1,0-3.1-0.9-3-2.8v-2.5h2.8v1.8c-0.1,0.9,0.5,1.4,1.6,1.3h4.4c1.2,0.1,1.9-0.3,2.2-1.1c0.2-0.4,0.4-1,0.4-1.6
		c0.4,0.1,0.9,0.4,1.7,0.6c0.4,0.1,0.6,0.3,0.9,0.3c-0.1,0.4-0.2,0.8-0.4,1.2c-0.1,0.3-0.1,0.5-0.2,0.6c-0.3,1.4-1.5,2.1-3.8,2.1
		H141.4z M145.5,11.9v-1.6h3.9V8.5h2.6v1.7h5v1.6h-5v1.5h4.5v1.4H152v1.6h5.3V18H152v1.4h-2.6V18h-4.1v-1.6h4.1v-1.6h-3.7v-1.4h3.7
		v-1.5H145.5z M155.6,33.4c-0.3-0.6-0.9-1.4-1.7-2.6c-0.5-0.8-0.9-1.4-1.1-1.7l2.4-1c0.4,0.5,0.9,1.2,1.5,2.2
		c0.6,0.9,1.1,1.5,1.4,1.9L155.6,33.4z"/>
	<path class="st0" d="M163,21.3c-0.4-0.5-0.9-1.2-1.5-2c-0.6-0.9-1.1-1.6-1.5-2.1l2.3-1.3c0.4,0.4,1,1.1,1.6,1.9
		c0.7,0.9,1.3,1.6,1.6,2.1L163,21.3z M163,34l-2.7-0.8c0.6-1.9,1.4-5,2.4-9.5c0.8,0.4,1.7,0.7,2.6,0.9c-0.3,1.2-0.7,3-1.3,5.4
		C163.5,31.8,163.2,33.1,163,34 M164,14.5c-0.4-0.5-1-1.3-1.8-2.5c-0.6-0.9-1-1.5-1.3-1.8l2.4-1.3c0.2,0.3,0.6,0.8,1.1,1.4
		c0.9,1.3,1.7,2.2,2.2,2.8L164,14.5z M167.1,23.4c-0.6-0.4-1.3-0.6-2.1-0.9c0.9-2.4,1.6-4.6,2.1-6.6l1.8,0.5c-0.3,1.2-0.8,3-1.4,5.4
		C167.3,22.6,167.2,23.1,167.1,23.4 M167.5,34.4c-0.1-0.1-0.4-0.4-0.8-0.6c-0.6-0.6-1.1-1.1-1.5-1.3c1.7-1.7,2.7-3.4,3.2-5.4
		c0.6-1.7,0.9-4.4,0.9-8v-10h2.6v10.3c0,4-0.3,6.9-0.9,9C170.5,30.2,169.3,32.3,167.5,34.4 M174.2,22.9c-0.1-0.3-0.2-0.7-0.3-1.2
		c-0.5-1.5-1.1-3.2-1.8-5l1.6-0.6c0.3,0.7,0.7,1.8,1.3,3.2c0.4,1.1,0.6,1.9,0.9,2.5V10.1h2.5v22.6h-2.5V22.3L174.2,22.9z
		 M180.6,22.7c-0.1-0.5-0.4-1.2-0.8-2.2c-0.2-0.7-0.7-2.1-1.4-4l1.6-0.6c0.3,0.8,0.7,2,1.3,3.6c0.4,1.1,0.6,1.9,0.9,2.4V9.1h2.6V34
		h-2.6V22L180.6,22.7z"/>
</g>
<g>
	<path class="st0" d="M85,47.7c-0.4,0.1-0.8,0.1-1.2,0.1c-0.4,0-0.7,0.1-1,0.1c-0.3,0-0.6,0-0.9,0.1c-0.3,0-0.6,0-0.9,0
		c-0.3,0-0.7,0-1,0c-0.4,0-0.8,0-1.3-0.1l-0.5-1.4c0.7,0.1,1.3,0.1,1.8,0.1c0.5,0,1,0,1.5,0c0.5,0,0.9,0,1.4-0.1
		c0.4-0.1,0.9-0.1,1.5-0.2L85,47.7z"/>
	<path class="st0" d="M99.4,44.2c-0.1,0.2-0.2,0.4-0.3,0.6c-0.1,0.2-0.3,0.4-0.4,0.6c-0.1,0.1-0.2,0.1-0.3,0.2c-0.2,0-0.4,0-0.6,0
		c-0.2,0-0.5,0-0.7-0.1c-0.3-0.1-0.5-0.1-0.7-0.3c-0.3-0.1-0.7-0.2-1.1-0.3c-0.5-0.1-1-0.1-1.5-0.1c-0.5,0-1.1,0-1.6,0.1
		c-0.6,0-1.1,0.1-1.5,0.2c-0.1,0-0.2,0.1-0.3,0.1c0,0,0,0.1,0,0.3c0,0.1,0,0.1,0,0.2c0,0.1,0,0.1,0,0.2c0,1.1-0.2,2-0.5,2.8
		c-0.3,0.8-0.7,1.4-1.1,1.8c-0.2,0.2-0.4,0.3-0.6,0.3c-0.2,0.1-0.4,0.1-0.6,0c-0.2,0-0.4-0.1-0.6-0.2c-0.2-0.1-0.3-0.3-0.4-0.5
		c-0.1-0.3-0.2-0.5-0.2-0.6c0-0.1,0.1-0.2,0.3-0.3c0.4-0.2,0.8-0.4,1.2-0.7c0.4-0.3,0.7-0.7,0.9-1.1c0.3-0.7,0.5-1.5,0.6-2.3
		c0.1-0.9,0-1.7-0.3-2.5c-0.1-0.1-0.1-0.3-0.1-0.5c0-0.2,0-0.3,0.1-0.4c0.1-0.1,0.1-0.2,0.2-0.3s0.2-0.1,0.3,0
		c0.2,0.1,0.3,0.1,0.4,0.2c0.1,0.1,0.2,0.1,0.2,0.1c0.1,0,0.1,0.1,0.2,0.1c0.2,0,0.3,0,0.5,0c0.2,0,0.3,0,0.5,0c0.2,0,0.3,0,0.5,0
		c0.2,0,0.4-0.1,0.6-0.1c0.3-0.1,0.6-0.1,0.9-0.2c0.3-0.1,0.6-0.1,0.9-0.2c0.3-0.1,0.5-0.1,0.7-0.2s0.3-0.1,0.4-0.1
		c0.3-0.2,0.5-0.3,0.6-0.4c0.2,0,0.3,0,0.4,0.1c0.2,0.1,0.3,0.2,0.4,0.3c0.1,0.1,0.2,0.2,0.2,0.3c0.1,0.2,0.2,0.4,0.1,0.6
		c-0.1,0.2-0.2,0.3-0.4,0.4c-0.4,0.1-1.1,0.3-2.2,0.4s-2.5,0.2-4.1,0.2c-0.1,0-0.1,0-0.1,0c0,0,0,0.1,0,0.2c0,0.2,0,0.3,0,0.5
		c0,0.2,0,0.3,0,0.5c0,0.1,0,0.1,0.1,0.1c0,0,0.1,0,0.2,0c0.5,0,0.9-0.1,1.3-0.1c0.4,0,0.8-0.1,1.2-0.1c0.4,0,0.8,0,1.2-0.1
		c0.4,0,0.9,0,1.3,0c0.5,0,1,0,1.6,0c0.6,0,1.2,0,1.9,0c0.2,0,0.3,0,0.4,0.1C99.5,43.9,99.4,44,99.4,44.2z M97.4,47.8
		c0,0.3-0.1,0.7-0.1,1.1c0,0.4,0,0.7,0,1c0,0.4,0,0.7-0.1,0.9c-0.1,0.2-0.1,0.4-0.2,0.5c-0.1,0.1-0.2,0.1-0.4,0.1
		c-0.1,0-0.3,0-0.4-0.1c-0.2-0.1-0.3-0.1-0.5-0.2c-0.1,0-0.3-0.1-0.6-0.1c-0.2,0-0.6,0-1.1,0c-0.5,0-1.2,0-1.9,0.1
		c-0.1,0-0.1,0-0.1,0c0,0-0.1,0.1-0.1,0.2c-0.1,0.1-0.2,0.2-0.3,0.3c-0.1,0-0.2,0-0.3,0c-0.1,0-0.2-0.1-0.2-0.2s-0.1-0.3-0.1-0.5
		c0-0.1,0-0.3,0-0.6c0-0.3,0-0.5,0-0.8c0-0.3,0-0.6-0.1-0.8c0-0.3-0.1-0.5-0.1-0.6c0-0.2-0.1-0.3-0.1-0.6c0-0.2,0-0.4,0-0.6
		c0-0.2,0.1-0.3,0.1-0.5c0.1-0.1,0.1-0.2,0.2-0.3c0.1-0.1,0.2-0.1,0.3-0.1c0.1,0,0.2,0,0.2,0.1c0.1,0.1,0.2,0.2,0.2,0.2
		c0,0,0.1,0,0.2,0c0.3,0,0.5,0,0.7,0c0.1,0,0.3-0.1,0.4-0.1c0.1-0.1,0.3-0.1,0.5-0.1c0.2,0,0.4,0,0.6,0s0.4,0,0.6,0
		c0.2,0,0.4,0,0.5,0.1c0.3,0.1,0.5,0.1,0.6,0.1c0.1,0,0.2,0,0.3-0.1c0.3-0.3,0.7-0.3,0.9,0c0.2,0.1,0.3,0.3,0.3,0.6
		C97.4,47.2,97.4,47.5,97.4,47.8z M96,47.9c0-0.2-0.1-0.3-0.1-0.4c-0.1-0.1-0.2-0.1-0.3-0.1c-0.2,0-0.5,0-0.7,0c-0.2,0-0.5,0-0.8,0
		c-0.3,0-0.6,0-0.9,0c-0.3,0-0.7,0.1-1.1,0.1c-0.1,0-0.2,0-0.2,0.1c0,0,0,0.1,0,0.2c0,0.3,0,0.6,0.1,0.9c0,0.3,0,0.6,0,0.9
		c0,0.1,0,0.2,0,0.2c0,0,0.1,0,0.2,0c0.3,0,0.6,0,0.9,0c0.3,0,0.6,0,0.9,0c0.3,0,0.6,0,0.9,0c0.3,0,0.5,0,0.7,0
		c0.1,0,0.2-0.1,0.3-0.2c0.1-0.1,0.1-0.2,0.2-0.4c0-0.1,0-0.2,0-0.4c0-0.1,0-0.3,0-0.4c0-0.1,0-0.3,0-0.4C96,48.1,96,48,96,47.9z"/>
	<path class="st0" d="M113.7,45.6c-0.1,0.1-0.2,0.2-0.3,0.2c-0.1,0-0.3,0-0.4-0.1c-0.2-0.2-0.4-0.4-0.6-0.6
		c-0.2-0.2-0.5-0.5-0.8-0.8c0,0-0.1-0.1-0.1-0.1c0,0-0.1,0-0.2,0.1c-0.4,0.4-0.9,0.6-1.3,0.8c-0.4,0.2-0.8,0.3-1.1,0.3
		c-0.3,0-0.7,0-1,0c-0.3,0-0.6,0-1-0.1c-0.3,0-0.6-0.1-0.9-0.2c-0.3-0.1-0.5-0.1-0.7-0.2c-0.2-0.1-0.5-0.1-0.9,0
		c-0.4,0.1-0.8,0.2-1.2,0.4c-0.1,0-0.2,0.1-0.3,0.1c-0.1,0-0.2,0-0.3,0c-0.1,0-0.2,0-0.3,0c-0.1,0-0.2-0.1-0.2-0.1
		c-0.1-0.1-0.2-0.3-0.2-0.4c0-0.2,0-0.3,0-0.5c0-0.2,0.1-0.3,0.3-0.4c0.1-0.1,0.3-0.2,0.5-0.2c0.2,0,0.4,0,0.6-0.1
		c0.2-0.1,0.4-0.1,0.7-0.2c0.3-0.1,0.6-0.3,0.8-0.4c0.3-0.2,0.5-0.4,0.8-0.6c0.3-0.2,0.5-0.5,0.8-0.8c0.3-0.3,0.5-0.6,0.8-1.1
		c0.2-0.3,0.4-0.4,0.5-0.5c0.2-0.1,0.4,0,0.7,0.2c0.3,0.2,0.4,0.4,0.4,0.6c0,0.2-0.1,0.4-0.2,0.6c-0.2,0.3-0.5,0.5-0.9,0.8
		c-0.4,0.3-0.9,0.6-1.4,1c-0.1,0.1-0.2,0.2-0.2,0.3c0,0.1,0,0.1,0.1,0.2c0.4,0.1,0.8,0.2,1.3,0.3c0.4,0.1,0.8,0.1,1.2,0.1
		c0.4,0,0.8-0.1,1.1-0.1c0.3-0.1,0.6-0.2,0.8-0.3c0.2-0.1,0.3-0.2,0.3-0.3c0-0.1-0.1-0.3-0.2-0.5c-0.1-0.2-0.2-0.4-0.3-0.5
		c-0.1-0.2-0.2-0.3-0.2-0.4c0-0.1,0-0.3,0-0.4c0-0.2,0.1-0.3,0.1-0.4c0.1-0.1,0.2-0.1,0.4-0.1c0.2,0.1,0.3,0.1,0.5,0.3
		c0.2,0.2,0.4,0.4,0.7,0.7c0.3,0.3,0.6,0.7,0.8,1c0.3,0.4,0.5,0.7,0.8,1c0.2,0.3,0.4,0.5,0.5,0.7c0.1,0.2,0.2,0.4,0.2,0.5
		C113.8,45.4,113.8,45.5,113.7,45.6z M111.9,47.7c0,0.1,0,0.1,0,0.3c0,0.1,0,0.3,0,0.4c0,0.2,0,0.4,0,0.7c0,0.3,0,0.6-0.1,1
		c0,0.4-0.1,0.8-0.3,1c-0.2,0.3-0.4,0.4-0.7,0.4c-0.1,0-0.3,0-0.3-0.1c-0.1-0.1-0.2-0.1-0.3-0.3c0,0-0.2-0.1-0.4-0.1
		c-0.3,0-0.6-0.1-1-0.1c-0.4,0-0.9,0-1.4,0c-0.5,0-1.1,0-1.7,0c0,0-0.1,0-0.1,0.1c-0.1,0.2-0.2,0.3-0.4,0.4
		c-0.2,0.1-0.3,0.1-0.5,0.1c-0.1,0-0.2-0.1-0.4-0.3c-0.1-0.2-0.2-0.5-0.2-0.8c0-0.4,0-0.8-0.1-1.2c0-0.3,0-0.6-0.1-0.8
		s0-0.4-0.1-0.6c0-0.2,0-0.3-0.1-0.5c0-0.2,0-0.5,0.1-0.7c0.1-0.3,0.3-0.5,0.5-0.6c0.1-0.1,0.3-0.1,0.4-0.1c0.1,0,0.3,0.1,0.4,0.3
		c0,0,0.1,0.1,0.1,0.1c0.8-0.1,1.4-0.1,1.9-0.2c0.5,0,0.8,0,1,0c0.2,0.1,0.4,0.1,0.8,0.1c0.3,0,0.7,0.1,1.1,0.1c0.2,0,0.3,0,0.4,0
		c0.1,0,0.2-0.1,0.2-0.2c0.3-0.3,0.7-0.3,1,0.1c0.2,0.2,0.3,0.4,0.3,0.6C111.9,47.1,111.9,47.4,111.9,47.7z M110.6,47.6
		c0-0.1,0-0.1-0.1-0.1c0,0-0.1,0-0.3,0c-0.9-0.1-1.8-0.1-2.7-0.1c-0.9,0-1.6,0-2.3,0.1c-0.1,0-0.1,0.1-0.1,0.2c0,0.6,0,1.3,0.1,2
		c0,0.1,0.1,0.1,0.1,0.1c0.3,0,0.6,0,0.8,0c0.3,0,0.6,0,0.9,0c0.3,0,0.7,0,1.1,0c0.4,0,0.8,0,1.3,0.1c0.2,0,0.4,0,0.5,0
		c0.1,0,0.2,0,0.3-0.1c0.1,0,0.1-0.1,0.2-0.2c0-0.1,0.1-0.2,0.1-0.4c0-0.1,0-0.2,0-0.4c0-0.2,0-0.3,0-0.5c0-0.2,0-0.3,0-0.4
		C110.6,47.8,110.6,47.7,110.6,47.6z"/>
	<path class="st0" d="M128,45.5c0,0.2,0,0.4,0,0.6c0,0.2,0,0.5,0,0.7c0,0.4,0,0.8-0.1,1c-0.1,0.2-0.2,0.4-0.3,0.5
		c-0.2,0.2-0.4,0.2-0.5,0.2c-0.2-0.1-0.2-0.3-0.2-0.6c0-0.1,0-0.2,0-0.4c0-0.1,0-0.3,0-0.5c0-0.2,0-0.3,0-0.5c0-0.1,0-0.3,0-0.4
		c0-0.2-0.1-0.4-0.1-0.5c-0.1-0.1-0.1-0.2-0.3-0.2c-0.4-0.1-0.9-0.1-1.4-0.2s-1.2-0.1-1.9-0.1c-0.6,0-1.3,0-2,0.1s-1.3,0.1-1.8,0.2
		c-0.2,0-0.4,0.1-0.5,0.1c-0.1,0.1-0.2,0.2-0.3,0.3c-0.1,0.1-0.1,0.4-0.2,0.6c0,0.3-0.1,0.6-0.1,1.1c0,0.2,0,0.3-0.1,0.4
		c-0.1,0.1-0.2,0.2-0.3,0.2c-0.2,0.2-0.4,0.1-0.5-0.1c-0.1-0.2-0.2-0.6-0.1-1.3c0-0.2,0-0.3,0-0.5s0-0.3,0-0.6c0-0.2,0-0.5,0.1-0.7
		c0.1-0.2,0.1-0.4,0.2-0.6c0.1-0.2,0.2-0.3,0.3-0.3c0.1-0.1,0.2-0.1,0.3,0c0.1,0.1,0.2,0.2,0.3,0.2c0.1,0,0.2,0,0.2,0
		c0.4-0.1,0.7-0.1,0.9-0.2c0.3,0,0.5-0.1,0.7-0.1c0.2,0,0.4-0.1,0.6-0.1c0.2,0,0.4,0,0.6-0.1c0.1,0,0.1,0,0.2-0.1c0-0.1,0-0.3,0-0.4
		c0-0.1,0-0.2,0-0.3c0-0.2,0-0.3,0.1-0.4c0.1-0.1,0.3-0.1,0.6-0.1c0.3,0,0.5,0.1,0.6,0.3c0.1,0.2,0.2,0.5,0.3,0.8
		c0,0.1,0.1,0.1,0.1,0.1c0.3,0,0.6,0,0.9,0c0.3,0,0.5,0,0.7,0.1c0.2,0,0.4,0.1,0.6,0.1c0.2,0,0.3,0.1,0.5,0.1c0.2,0.1,0.3,0.1,0.5,0
		c0.2,0,0.3-0.1,0.4-0.2c0.2-0.2,0.3-0.3,0.5-0.2c0.1,0.1,0.3,0.2,0.4,0.3c0.1,0.2,0.2,0.3,0.3,0.5C128,45,128,45.2,128,45.5z
		 M128.1,42.4c-0.2,0.5-0.5,0.8-0.7,0.9c-0.3,0.1-0.5,0.1-0.7-0.1c-0.1-0.1-0.2-0.2-0.3-0.3c-0.1-0.1-0.2-0.2-0.3-0.3
		c-0.1-0.1-0.2-0.2-0.3-0.3c-0.1-0.1-0.2-0.2-0.4-0.4c0,0,0,0.1,0,0.1c0,0,0,0,0,0c0,0.3,0,0.5,0,0.7c0,0.2,0,0.3-0.1,0.5
		c0,0.1-0.1,0.2-0.2,0.3c-0.1,0.1-0.3,0.1-0.4,0.1c-0.1,0-0.2-0.1-0.3-0.1c-0.1,0-0.1-0.1-0.1-0.2c0,0,0-0.1,0-0.2
		c0-0.1,0-0.2,0-0.3c0-0.1,0-0.2,0-0.3c0-0.1,0-0.2,0-0.3c0-0.1,0-0.1,0-0.2l-0.3,0.2c-0.1,0.1-0.2,0.2-0.3,0.2
		c-0.1,0.1-0.2,0.1-0.4,0.2c-0.2,0.1-0.4,0.1-0.5,0.1c-0.1,0-0.2-0.1-0.3-0.3c0-0.1,0-0.2,0-0.2c0,0,0,0-0.1,0c0,0,0,0,0,0
		c-0.1,0-0.2-0.1-0.3-0.1c-0.1,0-0.2-0.1-0.5-0.2c-0.1,0-0.1,0-0.1,0.2v0.7c0,0.2-0.1,0.4-0.1,0.5c-0.1,0.1-0.2,0.2-0.3,0.2
		c-0.1,0.1-0.2,0-0.3-0.1c-0.1-0.1-0.1-0.2-0.1-0.5c0-0.1,0-0.1,0-0.2c0-0.1,0-0.2,0-0.3c0-0.1-0.1-0.1-0.2-0.1
		c-0.2,0.2-0.4,0.3-0.6,0.5c-0.2,0.1-0.4,0.3-0.6,0.5c-0.3,0.2-0.5,0.3-0.8,0.4c-0.3,0.1-0.5,0-0.6-0.1c-0.2-0.1-0.3-0.3-0.3-0.4
		c-0.1-0.2-0.1-0.3-0.1-0.5c0-0.1,0-0.2,0-0.2c0,0,0.1-0.1,0.3-0.1c0.8-0.2,1.4-0.5,1.9-0.8c0.5-0.3,0.9-0.6,1-0.8
		c0.2-0.3,0.3-0.4,0.5-0.5c0.1,0,0.2,0,0.4,0.1c0.1,0.1,0.2,0.2,0.2,0.5c0,0.1,0,0.2,0,0.2c0,0,0,0.1,0.1,0.1
		c0.2,0.1,0.4,0.1,0.5,0.2s0.2,0.1,0.3,0.1c0.1,0.1,0.2,0.1,0.2,0.2c0.2-0.2,0.5-0.3,0.6-0.5s0.4-0.4,0.5-0.7
		c0.1-0.1,0.2-0.2,0.3-0.3c0.1-0.1,0.2-0.1,0.4,0c0.2,0.1,0.3,0.1,0.3,0.2c0.1,0.2,0.2,0.3,0.3,0.3c0.1,0.1,0.2,0.2,0.4,0.3
		c0.2,0.1,0.4,0.2,0.7,0.4c0.3,0.1,0.5,0.2,0.8,0.3c0.3,0.1,0.6,0.2,0.8,0.2c0.1,0,0.2,0.1,0.2,0.1
		C128.2,42.1,128.1,42.2,128.1,42.4z M126.5,49.9c0,0.1,0,0.3,0,0.5c0,0.2,0,0.3,0,0.4c0,0.5-0.1,0.8-0.4,1
		c-0.3,0.2-0.7,0.1-1.2-0.2c-0.1,0-0.2-0.1-0.5-0.1c-0.2,0-0.6,0-0.9,0c-0.4,0-0.8,0-1.3,0c-0.5,0-1,0-1.5,0.1c-0.1,0-0.1,0-0.2,0.1
		c-0.1,0.1-0.2,0.3-0.3,0.3c-0.1,0.1-0.2,0.1-0.4,0.1c-0.1,0-0.2,0-0.3-0.1s-0.2-0.1-0.2-0.2c-0.1-0.2-0.2-0.5-0.2-0.8
		c0-0.3,0-0.6,0.1-1c0-0.2,0.1-0.5,0.1-0.7c0-0.3,0.1-0.6,0.1-0.9c0-0.3,0-0.6,0-0.9c0-0.3,0-0.6,0-0.8c0-0.3,0-0.5,0.1-0.7
		c0.1-0.2,0.1-0.4,0.3-0.4c0.1,0,0.2-0.1,0.3,0c0.1,0,0.2,0.1,0.3,0.2c0.1,0.1,0.2,0.1,0.3,0.1c0.6-0.1,1.2-0.2,1.8-0.2
		c0.5,0,1,0,1.3,0.1c0.2,0,0.4,0,0.6,0c0.2,0,0.3,0,0.3-0.1c0.1-0.1,0.3-0.1,0.4-0.1c0.1,0,0.2,0,0.4,0.1c0.2,0.1,0.3,0.2,0.4,0.4
		c0.1,0.2,0.1,0.4,0,0.6c-0.1,0.2-0.1,0.4-0.1,0.6c0,0.2-0.1,0.4-0.1,0.5c0,0.2-0.1,0.4-0.3,0.4c-0.2,0.1-0.5,0.1-0.8-0.1
		c-0.1-0.1-0.5-0.1-1.2-0.1c-0.7,0-1.5,0.1-2.5,0.1c0,0-0.1,0-0.1,0.1s0,0.1,0,0.2c0,0.2,0,0.3,0,0.3c0,0.1,0.1,0.1,0.1,0.1
		c0.3-0.1,0.7-0.1,1.1-0.1s0.8-0.1,1.1-0.1c0.4,0,0.7,0,1,0c0.3,0,0.5,0,0.7,0.1c0.2,0,0.4,0,0.5,0c0.1,0,0.2-0.1,0.3-0.1
		c0.1-0.1,0.3-0.1,0.4-0.1c0.1,0,0.3,0.1,0.5,0.2c0.2,0.1,0.3,0.3,0.3,0.5C126.6,49.3,126.6,49.6,126.5,49.9z M125.1,50.2
		c0-0.2,0-0.3-0.1-0.4c-0.1-0.1-0.2-0.1-0.5-0.2c-0.4-0.1-0.9-0.1-1.5-0.1c-0.6,0-1.4,0.1-2.3,0.1c-0.1,0-0.1,0-0.1,0
		c0,0,0,0.1,0,0.2c0,0.1,0,0.2,0,0.3s0,0.2,0,0.3c0,0.1,0,0.2,0.1,0.2c0.4,0,0.9,0,1.3,0c0.4,0,0.8,0,1.1,0c0.3,0,0.6,0,0.9,0
		c0.3,0,0.4,0,0.6,0c0.1,0,0.3,0,0.4-0.1C125,50.4,125.1,50.3,125.1,50.2z M124.5,46.7c0-0.1,0-0.2-0.1-0.2
		c-0.1-0.1-0.1-0.1-0.2-0.1c-0.3,0-0.5,0-0.8,0c-0.2,0-0.5,0-0.7,0c-0.2,0-0.5,0-0.8,0c-0.3,0-0.7,0-1.1,0.1c0,0-0.1,0-0.1,0.1
		c0,0,0,0.1,0,0.3c0,0.2,0,0.3,0,0.3c0,0.1,0.1,0.1,0.1,0.1c0.3,0,0.6,0,0.9,0c0.3,0,0.5,0,0.8,0c0.3,0,0.5,0,0.8,0
		c0.2,0,0.5,0,0.8,0c0.1,0,0.2,0,0.3-0.1C124.4,47,124.5,46.9,124.5,46.7z"/>
	<path class="st0" d="M136.3,48.2c-0.1,0.2-0.1,0.3-0.2,0.4c-0.1,0.1-0.2,0.2-0.5,0.3c-0.3,0.2-0.5,0.3-0.9,0.5
		c-0.3,0.1-0.6,0.2-0.9,0.3c-0.2,0-0.3,0.1-0.5,0.1c-0.2,0-0.4,0.1-0.6,0.2c-0.2,0.1-0.4,0.1-0.5,0.2c-0.2,0.1-0.3,0.1-0.5,0.2
		c-0.2,0.1-0.4,0.2-0.6,0.1c-0.1-0.1-0.3-0.3-0.3-0.6c0-0.2,0-0.4,0-0.5c0-0.2,0.1-0.3,0.3-0.5c0.1-0.1,0.2-0.2,0.3-0.2
		c0.1,0,0.2-0.1,0.3-0.1c0.1,0,0.3,0,0.6,0c0.3,0,0.5-0.1,0.8-0.1c0.1,0,0.2,0,0.2-0.1c0,0,0.1-0.1,0.1-0.3c0-0.2,0-0.5,0-0.7
		c0-0.3,0-0.5,0-0.8c0-0.2,0-0.3,0-0.3c0,0-0.1-0.1-0.2,0c-0.5,0.1-0.9,0.2-1.1,0.3c-0.2,0.1-0.3,0-0.3-0.2c-0.1-0.4,0.1-0.7,0.4-1
		c0.1-0.1,0.2-0.2,0.3-0.3c0.1,0,0.1,0,0.2,0c0.1,0,0.1,0.1,0.3,0.1c0.1,0,0.2,0,0.4,0c0.1,0,0.2,0,0.2-0.1c0,0,0.1-0.1,0.1-0.2
		c0-0.2,0-0.4,0-0.6s0-0.4,0-0.6c0-0.2,0-0.3-0.1-0.3c0,0-0.1-0.1-0.2,0c-0.4,0-0.6,0.1-0.8,0.1c-0.2,0-0.3,0.1-0.4,0.1
		c-0.1,0.1-0.2,0.1-0.3,0.1c-0.1,0-0.1-0.1-0.2-0.1c-0.1-0.1-0.1-0.1-0.1-0.2c0-0.1,0-0.2,0-0.3c0-0.2,0.1-0.4,0.2-0.6
		c0.1-0.2,0.2-0.3,0.3-0.4c0.1-0.1,0.2-0.1,0.4-0.1c0.1,0,0.3,0,0.4,0.1c0.1,0.1,0.2,0.1,0.4,0.1s0.3,0,0.6,0c0.1,0,0.3,0,0.5,0
		c0.2,0,0.4,0,0.6,0c0.2,0,0.4,0,0.6,0c0.2,0,0.3,0,0.5,0c0.1,0,0.2,0.1,0.3,0.2c0.1,0.1,0.1,0.3,0.1,0.5c0,0.1,0,0.3-0.1,0.3
		c-0.1,0.1-0.2,0.1-0.3,0.1c-0.1,0-0.2,0-0.3,0c-0.1,0-0.2,0-0.3,0c-0.1,0-0.2,0-0.2,0.1s0,0.2,0,0.3c0,0.2,0,0.3,0,0.6
		c0,0.2,0,0.4,0,0.6c0,0.1,0,0.2,0,0.3c0,0,0.1,0.1,0.2,0.1c0.1,0,0.3,0,0.4,0c0.1,0,0.3,0,0.4,0c0.2,0,0.4,0.2,0.4,0.4
		c0,0.4-0.1,0.5-0.5,0.5c-0.1,0-0.2,0-0.3,0c-0.1,0-0.3,0-0.4,0c-0.1,0-0.1,0-0.2,0.1s0,0.2,0,0.3c0,0.2,0,0.4,0,0.7
		c0,0.2,0,0.4,0,0.6c0,0.1,0,0.3,0,0.3s0.1,0.1,0.2,0c0.1,0,0.3-0.1,0.4-0.1c0.1,0,0.3-0.1,0.4-0.1c0.3-0.1,0.4-0.1,0.5,0
		S136.4,48,136.3,48.2z M143.9,50.1c-0.1,0.3-0.2,0.6-0.3,0.8c-0.1,0.2-0.3,0.4-0.4,0.6c-0.2,0.2-0.5,0.3-0.7,0.3
		c-0.3,0-0.5-0.1-0.8-0.2c-0.2-0.1-0.5-0.2-0.8-0.3c-0.3-0.1-0.7-0.1-1.1-0.2c-0.4-0.1-0.8-0.1-1.1-0.1c-0.4,0-0.7,0-0.9,0
		c-0.5,0.1-0.9,0.1-1.2,0.2c-0.3,0.1-0.5,0.1-0.6,0.2c-0.3,0.2-0.5,0.3-0.7,0.2s-0.3-0.2-0.3-0.5c0-0.1,0-0.3,0-0.3
		c0-0.1,0.1-0.2,0.2-0.3c0.1-0.2,0.3-0.3,0.4-0.4c0.1-0.1,0.2-0.2,0.3-0.2c0.1,0,0.2-0.1,0.3-0.1c0.1,0,0.2,0,0.3,0.1
		c0.2,0.1,0.3,0.1,0.4,0.1c0.1,0,0.2,0,0.4-0.1c0,0,0.2,0,0.4,0c0.2,0,0.5,0,0.8-0.1c0.1,0,0.2,0,0.3-0.1s0.1-0.1,0.1-0.3
		c0-0.1,0-0.2,0-0.3c0-0.1,0-0.2,0-0.3c0-0.1,0-0.2-0.1-0.3c0,0-0.1-0.1-0.2-0.1c-0.3,0-0.6,0.1-0.8,0.1c-0.2,0-0.3,0.1-0.4,0.1
		c-0.2,0.1-0.4,0.2-0.5,0.2c-0.1,0-0.2-0.1-0.2-0.2c-0.1-0.2,0-0.5,0.1-0.7c0.1-0.1,0.2-0.2,0.3-0.3c0.1,0,0.2-0.1,0.3,0
		c0.1,0,0.2,0,0.4,0.1c0.2,0,0.3,0,0.5,0c0,0,0.1,0,0.1,0c0.1,0,0.1,0,0.2,0c0.1,0,0.2,0,0.2-0.1c0-0.1,0-0.1,0-0.3v-0.4
		c0-0.1,0-0.2-0.1-0.3s-0.1-0.1-0.2-0.1c-0.1,0-0.3,0-0.4,0c-0.1,0-0.2,0-0.3,0c0,0-0.1,0-0.2,0c-0.1,0-0.1,0.1-0.2,0.1
		c-0.1,0-0.1,0.1-0.1,0.1s-0.1,0-0.1,0.1c-0.1,0-0.2,0-0.3-0.1c-0.1-0.1-0.2-0.2-0.2-0.4c0-0.1,0-0.2,0-0.3c0-0.2,0-0.4,0-0.7
		c0-0.7,0-1.2,0-1.6c0-0.4-0.1-0.8-0.1-1.1c-0.1-0.4-0.1-0.8-0.1-1c0-0.2,0.1-0.4,0.2-0.6c0.1-0.2,0.3-0.2,0.4-0.2
		c0.1,0,0.3,0.1,0.4,0.3c0.1,0.1,0.1,0.2,0.2,0.2c0,0,0.1,0,0.2,0c0.3,0,0.7,0,1.2-0.1c0.5,0,1,0,1.7,0c0.1,0,0.1,0,0.2-0.1
		c0.1,0,0.2-0.1,0.2-0.2c0.1-0.1,0.2-0.2,0.4-0.2c0.1,0,0.3,0.1,0.5,0.2c0.2,0.1,0.3,0.3,0.3,0.5s0,0.4,0,0.7c0,0.1,0,0.3-0.1,0.5
		c0,0.3,0,0.5,0,0.8c0,0.3,0,0.6,0,0.8c0,0.3,0,0.5,0,0.6c0,0.6,0,1-0.1,1.2c-0.1,0.2-0.2,0.4-0.3,0.5c-0.2,0.1-0.3,0.1-0.6-0.1
		c0,0-0.2-0.1-0.4-0.1c-0.2,0-0.5,0-0.7,0c-0.1,0-0.1,0-0.1,0.1c0,0.1,0,0.1,0,0.3v0.4c0,0.1,0,0.2,0,0.2c0,0,0.1,0.1,0.3,0.1
		c0.3,0,0.7,0,1,0c0.3,0,0.6,0.1,0.8,0.1c0.1,0,0.2,0.1,0.2,0.1s0,0.1,0,0.3c0,0.1-0.1,0.2-0.1,0.3c-0.1,0.1-0.2,0.1-0.3,0.1
		c-0.2,0.1-0.5,0.1-0.7,0.1c-0.3,0-0.6,0-0.9,0c-0.2,0-0.3,0-0.3,0c0,0.1-0.1,0.2,0,0.3c0,0.1,0,0.1,0,0.2c0,0.1,0,0.2,0,0.2
		c0,0.1,0,0.2,0,0.2c0,0.1,0.1,0.1,0.2,0.1c0.3,0,0.6,0,0.9,0s0.6,0,0.9,0c0.2,0,0.4,0,0.6,0c0.3,0,0.6,0,1,0
		C143.9,49.7,143.9,49.9,143.9,50.1z M138.6,42.6c0-0.2,0-0.3-0.1-0.3c0,0-0.1,0-0.3,0c-0.2,0-0.4,0-0.6,0.1c-0.1,0-0.2,0.1-0.2,0.1
		c0,0.1,0,0.2,0,0.3c0,0.1,0,0.2,0,0.3c0,0.1,0,0.2,0,0.3c0,0.2,0.1,0.3,0.2,0.2c0.1,0,0.2,0,0.3,0c0.1,0,0.2,0,0.3,0
		c0.1,0,0.2,0,0.2-0.1c0,0,0.1-0.1,0.1-0.3V42.6z M138.7,44.8c0-0.1,0-0.2-0.1-0.2c0,0-0.1,0-0.2,0c-0.2,0-0.4,0-0.6,0.1
		c-0.1,0-0.2,0-0.2,0.1c0,0,0,0.1,0,0.2v0.5c0,0.1,0,0.2,0.1,0.2s0.1,0.1,0.2,0.1c0.1,0,0.2,0,0.3,0c0.1,0,0.2,0,0.3,0
		c0.1,0,0.2,0,0.3,0s0.1-0.1,0.1-0.3V44.8z M141,42.7c0-0.3-0.1-0.5-0.4-0.5c-0.2,0-0.3,0-0.5,0c-0.1,0-0.2,0-0.2,0.1
		c0,0.1,0,0.1,0,0.3v0.7c0,0.1,0,0.2,0,0.3c0,0,0.1,0.1,0.2,0.1c0.1,0,0.2,0,0.3,0c0.1,0,0.2,0,0.4,0c0.1,0,0.2,0,0.2-0.1
		s0-0.2,0-0.3V42.7z M140.9,44.9c0-0.2,0-0.3,0-0.3c0,0-0.1-0.1-0.2-0.1c-0.1,0-0.3,0-0.4,0c-0.1,0-0.2,0-0.3,0c-0.1,0-0.2,0-0.2,0
		c0,0,0,0.1,0,0.3v0.5c0,0.1,0,0.3,0.1,0.3c0,0,0.1,0.1,0.2,0c0.1,0,0.2,0,0.2,0c0.1,0,0.1,0,0.2,0c0.3,0,0.4-0.2,0.4-0.5
		c0,0,0-0.1,0-0.1C140.9,45,140.9,44.9,140.9,44.9z"/>
	<path class="st0" d="M150.7,47.8c0.1,0.2,0.2,0.3,0.1,0.5c0,0.2-0.1,0.3-0.2,0.5c-0.2,0.2-0.5,0.5-0.8,0.8
		c-0.4,0.3-0.7,0.5-1.2,0.8s-0.8,0.4-1.2,0.6c-0.4,0.2-0.7,0.3-1,0.4c-0.2,0-0.4,0-0.6-0.3c-0.1-0.1-0.1-0.2-0.1-0.3
		c0-0.1,0.1-0.2,0.2-0.3c0.5-0.3,1-0.5,1.4-0.7c0.4-0.2,0.7-0.4,1-0.6c0.3-0.2,0.5-0.4,0.7-0.6s0.4-0.4,0.5-0.6
		c0.2-0.3,0.5-0.5,0.6-0.5C150.4,47.5,150.6,47.6,150.7,47.8z M156.5,46.8c0,0.1,0,0.1-0.1,0.1c0,0-0.1,0-0.1,0c-0.1,0-0.1,0-0.3,0
		c-0.1,0-0.3-0.1-0.4-0.1c-0.2-0.1-0.4-0.2-0.6-0.2c-0.2-0.1-0.3-0.2-0.4-0.2c-0.1,0-0.1,0-0.1,0c-0.3,0.2-0.5,0.4-0.7,0.6
		c-0.2,0.2-0.4,0.3-0.6,0.4c-0.1,0-0.1,0.1-0.1,0.2c0,0.2,0,0.3,0,0.5c0,0.2,0,0.3,0,0.5c0,0.2,0,0.4,0,0.6c0,0.2,0,0.5,0,0.8
		c0,0.7-0.1,1.1-0.5,1.5c-0.3,0.3-0.8,0.4-1.4,0.3c-0.3-0.1-0.5-0.2-0.8-0.5c-0.2-0.3-0.4-0.6-0.6-1c-0.1-0.3,0-0.4,0.2-0.3
		c0.2,0.1,0.3,0.2,0.5,0.2c0.1,0,0.2,0.1,0.3,0.1c0.1,0,0.2,0,0.2,0c0.1,0,0.1,0,0.1-0.1c0.1,0,0.1-0.1,0.2-0.1
		c0-0.1,0.1-0.2,0.1-0.3c0-0.2,0-0.4,0-0.7c0-0.3,0-0.8,0-1.3c0-0.1,0-0.2-0.1-0.2c-0.1,0-0.2-0.1-0.3-0.1c-0.1,0-0.2-0.1-0.3-0.1
		c-0.1,0-0.2-0.1-0.3-0.1c-0.1,0-0.3,0-0.4,0.1c-0.1,0-0.3,0.1-0.5,0.2c-0.2,0.1-0.4,0.2-0.7,0.3c-0.2,0.1-0.4,0.1-0.6,0
		c-0.1-0.1-0.2-0.3-0.2-0.6c0-0.3,0-0.4,0.1-0.6c0.1-0.1,0.3-0.3,0.6-0.3c0.2-0.1,0.3-0.1,0.5-0.2c0.2-0.1,0.4-0.3,0.6-0.4
		c0.3-0.2,0.2-0.3-0.1-0.3c-0.2,0-0.4,0-0.6,0.1c-0.2,0-0.3,0.1-0.4,0.1c-0.3,0.1-0.5,0.1-0.6,0c-0.1-0.1-0.2-0.3-0.3-0.7
		c0-0.2,0-0.3,0.1-0.5c0.1-0.2,0.3-0.3,0.5-0.3c0.4-0.1,0.7-0.2,1-0.4c0.3-0.2,0.6-0.4,0.9-0.7c0.1-0.1,0.2-0.2,0.2-0.3
		c0-0.1-0.1-0.1-0.2-0.1c-0.3,0-0.7,0.1-1,0.1c-0.3,0-0.7,0-1,0c-0.3,0-0.5,0-0.7,0c-0.2,0-0.3,0-0.4,0c-0.2,0-0.3-0.1-0.4-0.3
		c-0.1-0.1-0.1-0.3-0.1-0.4c0-0.4,0.1-0.5,0.4-0.5c0.3,0,0.6,0,0.8,0c0.3,0,0.5,0,0.8,0c0.3,0,0.6,0,1-0.1c0.4,0,0.8-0.1,1.3-0.1
		c0,0,0.2,0,0.3,0c0.2,0,0.4-0.1,0.7-0.1c0.3,0,0.6-0.1,0.9-0.1c0.3,0,0.6-0.1,0.9-0.2c0.3-0.1,0.5-0.1,0.7-0.1
		c0.2,0,0.4-0.1,0.4-0.1c0.2-0.1,0.3-0.1,0.4-0.1c0.1,0,0.2,0.1,0.3,0.2c0.1,0.1,0.2,0.3,0.3,0.4c0.1,0.2,0.2,0.3,0.2,0.3
		c0,0.2,0,0.3-0.1,0.4c-0.1,0.1-0.2,0.1-0.5,0.1c-0.5,0-0.9,0.1-1.5,0.1c-0.5,0.1-1,0.1-1.6,0.2c-0.1,0-0.2,0-0.2,0.1
		c0,0-0.1,0.1-0.2,0.2c-0.1,0.2-0.3,0.3-0.4,0.5s-0.3,0.2-0.4,0.3c-0.1,0.1-0.3,0.2-0.5,0.3c-0.2,0.1-0.3,0.2-0.5,0.2
		c0,0-0.1,0-0.1,0.1c0,0.1,0,0.1,0,0.1c0,0,0.1,0.1,0.1,0.1c0.1,0,0.2,0.1,0.3,0.1c0.1,0,0.2,0,0.3-0.1c0.4-0.2,0.7-0.5,1-0.7
		c0.3-0.2,0.5-0.4,0.6-0.6c0.2-0.3,0.4-0.4,0.6-0.4c0.2,0,0.4,0.2,0.6,0.5c0.1,0.1,0.1,0.3,0.1,0.5c0,0.2-0.1,0.4-0.3,0.4
		c-0.3,0.1-0.5,0.3-0.7,0.4c-0.2,0.1-0.4,0.2-0.6,0.3c-0.2,0.1-0.4,0.2-0.6,0.4c-0.2,0.1-0.4,0.3-0.7,0.5c-0.2,0.1-0.3,0.2-0.3,0.3
		c0,0.1,0.1,0.2,0.2,0.2c0.3,0.1,0.5,0.2,0.7,0.2c0.2,0,0.4,0.1,0.6,0.1c0.2,0,0.4-0.1,0.5-0.1c0.2-0.1,0.3-0.2,0.5-0.4
		c0.1-0.1,0.1-0.2,0-0.3c-0.1,0-0.1-0.1-0.1-0.1s-0.1-0.1-0.2-0.1c-0.1-0.1-0.2-0.2-0.2-0.4c0-0.1,0.1-0.3,0.1-0.4
		c0.1-0.2,0.3-0.2,0.4-0.2c0.1,0,0.4,0.1,0.6,0.3c0.3,0.2,0.6,0.4,0.9,0.5c0.2,0.2,0.4,0.3,0.6,0.4c0.2,0.1,0.3,0.3,0.4,0.4
		c0.1,0.1,0.2,0.3,0.3,0.4c0.1,0.1,0.1,0.2,0.1,0.2C156.5,46.6,156.5,46.7,156.5,46.8z M158.7,50.1c0,0.1-0.1,0.3-0.3,0.5
		c-0.1,0.2-0.3,0.3-0.4,0.4c-0.1,0.1-0.3,0.2-0.4,0.2c-0.1,0-0.3,0-0.4,0c-0.1-0.1-0.3-0.1-0.5-0.3c-0.2-0.1-0.4-0.3-0.7-0.6
		c-0.1-0.1-0.3-0.2-0.4-0.4c-0.2-0.2-0.4-0.4-0.5-0.6c-0.2-0.2-0.3-0.4-0.5-0.6c-0.1-0.2-0.2-0.3-0.3-0.4c-0.1-0.1-0.2-0.2-0.3-0.3
		c-0.1-0.1-0.3-0.2-0.4-0.3c-0.1,0-0.1-0.1-0.1-0.1c0-0.1,0-0.1,0.1-0.2c0-0.1,0.1-0.1,0.1-0.2c0.1-0.1,0.1-0.1,0.2-0.1
		c0,0,0.2,0.1,0.4,0.2c0.2,0.1,0.5,0.3,0.8,0.5c0.3,0.2,0.6,0.4,0.9,0.6c0.3,0.2,0.6,0.4,0.8,0.5c0.2,0.1,0.4,0.2,0.6,0.4
		c0.3,0.1,0.6,0.3,1,0.4C158.8,49.7,158.8,49.9,158.7,50.1z"/>
	<path class="st0" d="M166.4,47.2c0.1,0.2,0,0.4-0.2,0.6c-0.3,0.3-0.7,0.7-1.3,1.1c-0.6,0.4-1.4,0.8-2.4,1.3c-0.3,0.1-0.5,0.1-0.7,0
		s-0.3-0.3-0.4-0.7c0-0.3,0-0.5,0.2-0.7c0.1-0.2,0.4-0.3,0.6-0.4c0.5-0.1,1-0.2,1.6-0.4c0.6-0.2,1.3-0.5,2.1-0.9
		c0.2-0.1,0.3-0.1,0.4-0.1C166.3,47.1,166.4,47.1,166.4,47.2z M166.2,43c0.1,0.2,0.1,0.4,0.1,0.6c-0.1,0.2-0.1,0.4-0.3,0.6
		c-0.1,0.2-0.3,0.4-0.6,0.6c-0.3,0.2-0.6,0.6-1.1,0.9c-0.1,0.1-0.1,0.1-0.1,0.1c0,0,0.1,0,0.3,0c0.3-0.1,0.6-0.1,0.9-0.2
		c0.3-0.1,0.5-0.2,0.7-0.2c0.2-0.1,0.3-0.1,0.3,0c0,0.1,0,0.2-0.2,0.5c0,0.1-0.1,0.2-0.2,0.3c-0.1,0.1-0.2,0.2-0.3,0.3
		c-0.1,0.1-0.2,0.2-0.3,0.2c-0.1,0.1-0.2,0.1-0.3,0.1c-0.3,0.1-0.6,0.2-1,0.4c-0.4,0.1-0.7,0.2-1,0.3c-0.2,0.1-0.3,0.1-0.4,0
		c-0.1-0.1-0.2-0.2-0.3-0.5c-0.1-0.3-0.1-0.5-0.1-0.7c0.1-0.2,0.2-0.3,0.4-0.4c0.2-0.1,0.4-0.2,0.6-0.4c0.2-0.2,0.4-0.4,0.7-0.7
		c0,0,0.1-0.1,0-0.1c0,0,0,0-0.1,0c-0.2,0.1-0.4,0.1-0.6,0.2c-0.2,0-0.3,0.1-0.4,0.1c-0.3,0.1-0.5,0.1-0.7,0
		c-0.2-0.1-0.3-0.4-0.4-0.7c-0.1-0.3,0-0.6,0-0.7c0.1-0.2,0.2-0.3,0.4-0.4c0.3-0.2,0.5-0.3,0.7-0.5c0.2-0.2,0.4-0.4,0.6-0.6
		c0.2-0.2,0.4-0.4,0.5-0.7c0.2-0.2,0.3-0.5,0.5-0.8c0.1-0.2,0.2-0.3,0.5-0.2c0.2,0,0.4,0.1,0.5,0.3c0.2,0.2,0.2,0.5,0.2,0.7
		c0,0.3-0.1,0.5-0.3,0.6c-0.2,0.2-0.5,0.4-0.8,0.6c-0.3,0.2-0.8,0.5-1.3,0.8c-0.2,0.1-0.3,0.2-0.2,0.3c0,0.1,0.1,0.1,0.3,0.1
		c0.3,0,0.5,0,0.7,0s0.4,0,0.5-0.1c0.1,0,0.2-0.1,0.3-0.2c0.1-0.1,0.1-0.3,0.2-0.4c0.1-0.1,0.2-0.3,0.3-0.4
		C165.7,42.4,166,42.4,166.2,43z M172.1,42.7c0,0.2,0,0.4-0.1,0.5c-0.1,0.1-0.3,0.1-0.6,0.1c-0.5,0-1-0.1-1.5-0.1
		c-0.1,0-0.2,0-0.3,0.1c-0.2,0.3-0.3,0.5-0.5,0.7s-0.3,0.4-0.5,0.5c-0.1,0.1-0.1,0.1-0.1,0.2c0,0,0.1,0.1,0.2,0.1c0.2,0,0.4,0,0.6,0
		c0.2,0,0.4,0,0.5,0c0.1,0,0.1-0.1,0.1-0.2c-0.1-0.2-0.1-0.4-0.1-0.5c0-0.1,0.1-0.3,0.2-0.4c0.2-0.2,0.4-0.2,0.7,0.1
		c0.2,0.2,0.4,0.5,0.6,0.7s0.4,0.5,0.6,0.8c0.1,0.2,0.2,0.3,0.2,0.5c0,0.1,0,0.3-0.1,0.4c0,0.1-0.1,0.1-0.2,0.1
		c-0.1,0-0.3-0.1-0.4-0.2c-0.1-0.1-0.1-0.1-0.2-0.2c-0.1-0.1-0.1-0.1-0.2-0.2c-0.1-0.1-0.2-0.1-0.3-0.1c-0.2,0-0.3,0-0.5,0.1
		c-0.2,0-0.3,0-0.5,0c-0.2,0-0.3,0-0.5,0c-0.2,0-0.4,0-0.6,0c-0.1,0-0.1,0,0,0.1c0.1,0.2,0.2,0.5,0.2,0.9c0,1.1-0.1,2.1-0.4,2.9
		s-0.7,1.3-1.3,1.6c-0.3,0.1-0.5,0.2-0.7,0.2c-0.2,0.1-0.5,0-0.7,0c-0.2-0.1-0.4-0.2-0.6-0.3c-0.2-0.2-0.3-0.4-0.4-0.6
		c-0.1-0.2-0.1-0.3-0.1-0.4c0-0.1,0.1-0.1,0.3-0.1c0.1,0,0.3,0,0.4,0c0.1,0,0.3,0,0.5-0.1c0.7-0.2,1.2-0.5,1.6-1
		c0.3-0.5,0.4-1.2,0.4-2c0-0.2,0-0.4,0-0.5c0-0.1,0-0.3,0-0.4c0-0.2,0-0.2-0.1-0.2c-0.1,0-0.1,0.1-0.2,0.1c-0.1,0-0.1,0-0.2,0.1
		c-0.2,0.1-0.3,0.1-0.5,0c-0.1-0.1-0.2-0.3-0.3-0.6c-0.1-0.5,0.1-0.8,0.4-0.9c0.2-0.1,0.3-0.2,0.5-0.3s0.3-0.3,0.4-0.5
		c0.1-0.1,0.1-0.2,0.2-0.4c0.1-0.1,0.1-0.2,0.1-0.3c0-0.1,0-0.1-0.1-0.1c-0.3,0-0.5,0.1-0.7,0.1c-0.2,0.1-0.3,0.1-0.4,0.2
		c-0.2,0.1-0.3,0.2-0.4,0.1c-0.1,0-0.2-0.1-0.2-0.3c0-0.1,0-0.3,0-0.5c0-0.2,0.1-0.4,0.3-0.5c0.2-0.3,0.5-0.4,0.7-0.3
		c0.1,0,0.2,0.1,0.3,0.1c0.1,0,0.3,0,0.4,0.1c0.2,0,0.2,0,0.2-0.2c0-0.2,0-0.4,0-0.5c0-0.2,0-0.3,0-0.4c0-0.3,0.1-0.6,0.2-0.7
		c0.1-0.1,0.3-0.2,0.5-0.3c0.1,0,0.2,0,0.4,0.2c0.1,0.1,0.3,0.3,0.3,0.6c0,0.1,0,0.2,0,0.3c0,0.2,0,0.4,0,0.6c0,0.1,0,0.2,0.1,0.4
		c0.1,0.1,0.1,0.1,0.3,0.1c0.2,0,0.4,0,0.5,0c0.2,0,0.3,0,0.4,0c0.1,0,0.3,0,0.4,0c0.1,0,0.3,0,0.4,0c0.1,0,0.2,0,0.3,0.1
		C172.1,42.4,172.1,42.5,172.1,42.7z M173.7,49.2c0,0.3-0.1,0.7-0.3,1.1c-0.2,0.4-0.4,0.8-0.6,1.1c-0.2,0.3-0.5,0.5-0.7,0.6
		c-0.2,0.1-0.5,0.1-0.7,0c-0.3-0.1-0.6-0.2-0.8-0.4c-0.3-0.1-0.5-0.3-0.7-0.5s-0.4-0.4-0.5-0.6c-0.1-0.2-0.2-0.4-0.3-0.6
		c-0.1-0.2-0.1-0.5-0.1-0.7c0-0.2-0.1-0.5-0.1-0.7c0-0.3,0-0.5,0-0.8c0-0.3,0-0.6,0.1-1c0.1-0.4,0.1-0.6,0.3-0.7
		c0.1-0.1,0.3-0.1,0.4-0.1c0.2,0.1,0.3,0.2,0.3,0.3c0,0.2,0,0.3,0,0.5c-0.1,0.6-0.2,1.2-0.1,1.6c0.1,0.5,0.2,0.8,0.5,0.9
		c0.3,0.2,0.5,0.3,0.8,0.3c0.3,0.1,0.6,0.1,0.9,0c0.3,0,0.5-0.1,0.8-0.2c0.3-0.1,0.5-0.3,0.6-0.4c0.1-0.1,0.2-0.1,0.2-0.1
		C173.7,48.8,173.7,49,173.7,49.2z"/>
	<path class="st0" d="M181.9,47.7c-0.4,0.1-0.8,0.1-1.2,0.1c-0.4,0-0.7,0.1-1,0.1c-0.3,0-0.6,0-0.9,0.1c-0.3,0-0.6,0-0.9,0
		s-0.7,0-1,0c-0.4,0-0.8,0-1.3-0.1l-0.5-1.4c0.7,0.1,1.3,0.1,1.8,0.1c0.5,0,1,0,1.5,0c0.5,0,0.9,0,1.4-0.1c0.4-0.1,0.9-0.1,1.5-0.2
		L181.9,47.7z"/>
</g>
<g>
	<path class="st0" d="M51.7,25.3h-3.7v-3.7V1.1H17.7v43.7v14.6h36.4c8,0,14.6-6.5,14.6-14.6V25.3H51.7z M54.9,49.1
		c0,1-0.8,1.8-1.8,1.8h-1.8h-1.4h-1.8v-1.8c0,0,0,0,0,0v-6.8c0-2-1.6-3.6-3.6-3.6h-2.5c-2,0-3.6,1.6-3.6,3.6h0v6.8
		c0,1-0.8,1.8-1.8,1.8h-1.8h-1.4h-1.8v-1.8v-0.9v-25v-0.9v-1.8h1.8h1.4h1.8c1,0,1.8,0.8,1.8,1.8v8.4c0,0,0,0.1,0,0.1v1.7h3.6
		c0,0-0.1,0-0.1,0h4.4h0c4.6,0,8.4,3.7,8.6,8.3V49.1z"/>
	<rect x="51.7" y="1.1" class="st0" width="16.9" height="20.5"/>
</g>
</svg>
